<?xml version="1.0" standalone="no"?>
<!DOCTYPE svg PUBLIC "-//W3C//DTD SVG 1.1//EN" "http://www.w3.org/Graphics/SVG/1.1/DTD/svg11.dtd" >
<svg xmlns="http://www.w3.org/2000/svg">
<metadata></metadata>
<defs>
<font id="arca_majoraheavy" horiz-adv-x="143" >
<font-face units-per-em="2048" ascent="1638" descent="-410" />
<missing-glyph horiz-adv-x="716" />
<glyph horiz-adv-x="0" />
<glyph unicode="&#xd;" />
<glyph horiz-adv-x="0" />
<glyph horiz-adv-x="0" />
<glyph />
<glyph />
<glyph />
<glyph />
<glyph />
<glyph horiz-adv-x="0" />
<glyph />
<glyph />
<glyph unicode=" "  horiz-adv-x="716" />
<glyph unicode="&#x09;" horiz-adv-x="716" />
<glyph unicode="&#xa0;" horiz-adv-x="716" />
<glyph unicode="!" horiz-adv-x="681" d="M143 176q0 41 15.5 77t42 63.5t62.5 43t77 15.5t78 -15.5t63.5 -43t42 -63.5t15.5 -77q0 -82 -56.5 -139t-142.5 -57q-82 0 -139.5 57t-57.5 139zM197 506v1071h286v-1071h-286z" />
<glyph unicode="&#x22;" horiz-adv-x="989" d="M123 866v711h272v-711h-272zM594 866v711h272v-711h-272z" />
<glyph unicode="#" horiz-adv-x="1507" d="M150 317l28 201h207l51 369h-207l29 200h205l45 318h219l-45 -318h248l45 318h219l-45 -318h207l-27 -200h-207l-51 -369h205l-25 -201h-209l-43 -317h-219l43 317h-248l-43 -317h-219l43 317h-206zM604 518h248l51 369h-248z" />
<glyph unicode="$" horiz-adv-x="2170" />
<glyph unicode="%" horiz-adv-x="1718" d="M143 1270q0 68 26 128t69 104t100 69.5t123 25.5q63 0 121.5 -25.5t101.5 -69.5t68.5 -104t25.5 -128t-25.5 -128.5t-68.5 -104.5t-101.5 -69.5t-121.5 -25.5q-66 0 -123 25.5t-100 69.5t-69 104.5t-26 128.5zM215 -2l989 1579h295l-989 -1579h-295zM340 1270 q0 -49 35 -85t86 -36q53 0 87 36t34 85t-34 85t-87 36q-51 0 -86 -36t-35 -85zM938 307q0 68 25.5 128.5t68.5 104.5t101.5 69.5t123.5 25.5q63 0 122 -25.5t102 -69.5t68.5 -104.5t25.5 -128.5t-25.5 -128t-68.5 -104t-101.5 -69.5t-122.5 -25.5q-66 0 -124 25.5t-101 69.5 t-68.5 104.5t-25.5 127.5zM1135 307q0 -49 34.5 -85t87.5 -36q49 0 85 36t36 85t-35.5 85t-85.5 36q-53 0 -87.5 -36t-34.5 -85z" />
<glyph unicode="&#x26;" horiz-adv-x="1548" d="M143 518q0 104 39 199.5t111 169.5l59 61q-74 106 -73 236q0 78 28.5 147.5t79.5 120.5t119.5 81t146.5 30q74 0 140.5 -28t117 -76t80 -112.5t29.5 -140.5q0 -78 -28.5 -150.5t-69.5 -137.5l-170 169q14 25 24 53.5t10 57.5q0 53 -40.5 88t-92.5 35q-59 0 -100 -41 t-41 -100t41 -101l518 -526l219 221l168 -170l-219 -221l215 -219l-168 -170l-215 217l-57 -59q-72 -74 -164 -113t-197 -39q-109 0 -201 41t-161.5 111.5t-108.5 165t-39 200.5zM379 518q0 -55 21.5 -105.5t58.5 -88t87 -60t107 -22.5q45 0 79 11t62.5 29.5t54 44 t54.5 56.5l-385 391q-31 -31 -56.5 -57.5t-44 -55t-28.5 -63.5t-10 -80z" />
<glyph unicode="'" horiz-adv-x="518" d="M123 866v711h272v-711h-272z" />
<glyph unicode="*" horiz-adv-x="737" d="M143 1292v92l115 19l-43 106l82 47l72 -88l71 88l82 -47l-43 -106l115 -19v-92l-115 -18l43 -107l-82 -47l-71 88l-72 -88l-82 47l43 107z" />
<glyph unicode="+" horiz-adv-x="1429" d="M160 672v233h436v410h238v-410h438v-233h-438v-408h-238v408h-436z" />
<glyph unicode="," horiz-adv-x="722" d="M205 207h313l-102 -608h-211v608z" />
<glyph unicode="-" horiz-adv-x="1122" d="M143 672v233h836v-233h-836z" />
<glyph unicode="." horiz-adv-x="681" d="M143 176q0 41 15.5 77t42 63.5t62.5 43t77 15.5t78 -15.5t63.5 -43t42 -63.5t15.5 -77q0 -82 -56.5 -139t-142.5 -57q-82 0 -139.5 57t-57.5 139z" />
<glyph unicode="/" horiz-adv-x="1308" d="M82 -410l850 2048h295l-850 -2048h-295z" />
<glyph unicode="0" horiz-adv-x="1376" d="M143 801q0 82 13.5 173t41 179t71.5 169t104.5 142.5t138.5 97t176 35.5q96 0 175 -35.5t139.5 -97t104.5 -142.5t71.5 -169t41 -179t13.5 -173q0 -80 -13.5 -173t-41 -184.5t-71.5 -176.5t-104.5 -149.5t-138.5 -103.5t-176 -39t-176 39t-138.5 103.5t-104.5 149.5 t-71.5 177.5t-41 184.5t-13.5 172zM420 803q0 -39 3 -95.5t12 -117t27.5 -119.5t48.5 -106.5t73 -77t104 -29.5q59 0 102.5 28.5t73 76t48 106.5t28.5 118.5t13 115t3 94.5q0 61 -8 149t-35.5 170t-81 140.5t-143.5 58.5t-142 -57.5t-81 -138.5t-37 -169t-8 -147z" />
<glyph unicode="1" horiz-adv-x="684" d="M41 1313v264h438v-1577h-268v1313h-170z" />
<glyph unicode="2" horiz-adv-x="1308" d="M82 0l604 754q29 37 60.5 77.5t59.5 85t46 91.5t18 94q0 45 -18 87t-50 73.5t-74 50t-89 18.5q-125 0 -185.5 -74.5t-70.5 -185.5h-256q10 109 47 205t100.5 168t153.5 112.5t209 40.5q100 0 189 -39.5t155 -107.5t103.5 -158t37.5 -190q0 -86 -26.5 -163t-67.5 -147.5 t-92 -136t-102 -129.5l-209 -260h592v-266h-1135z" />
<glyph unicode="3" horiz-adv-x="1257" d="M143 444h252q25 -104 76 -153t164 -49q49 0 91 19.5t72.5 51t48 74.5t17.5 90t-17.5 89t-48 73t-72.5 49.5t-91 18.5h-166v266h166q39 0 69.5 17.5t51 45t32 61t11.5 68.5q0 68 -46 117t-118 49q-47 0 -79 -13t-52.5 -37t-32.5 -57.5t-20 -74.5h-252q6 92 38.5 174 t88 143.5t133.5 96t176 34.5q88 0 163.5 -35.5t131 -95t87.5 -137.5t32 -164q0 -80 -26 -160.5t-83 -146.5q174 -158 174 -381q0 -98 -37 -189t-101.5 -160t-152.5 -111t-188 -42q-229 0 -351 123t-141 346z" />
<glyph unicode="4" horiz-adv-x="1337" d="M82 276l823 1301h135v-1036h174v-265h-174v-276h-254v276h-704zM526 541h260v442z" />
<glyph unicode="5" horiz-adv-x="1302" d="M106 291l205 153q23 -35 50.5 -70.5t62.5 -64t76 -48t88 -19.5q55 0 102 21.5t81 57t53.5 84t19.5 101.5t-19.5 101t-53.5 84t-81 57.5t-102 21.5q-41 0 -83 -11t-81 -24l-135 115l162 727h618v-266h-420l-69 -334h18q23 0 43.5 3t42.5 3q106 0 184 -38t129.5 -104.5 t76 -153.5t24.5 -185q0 -111 -38 -207t-106.5 -167t-164 -112t-207.5 -41q-80 0 -148.5 26t-127 69t-107.5 100t-93 121z" />
<glyph unicode="6" horiz-adv-x="1310" d="M143 504q0 98 36 186t89 172l449 715h305l-340 -545q111 -6 200 -52t152.5 -119t98 -166t34.5 -191q0 -106 -38.5 -202.5t-107.5 -168.5t-163 -115t-203 -43q-111 0 -204 42t-161.5 115t-107.5 168t-39 204zM401 504q0 -53 19.5 -100.5t53.5 -83t80 -57t101 -21.5 t101.5 21.5t80 57t53 83t19.5 100.5q0 51 -19.5 99t-53 84t-79.5 57.5t-102 21.5q-55 0 -101 -21.5t-80 -57.5t-53.5 -84t-19.5 -99z" />
<glyph unicode="7" horiz-adv-x="1097" d="M41 1313v264h1118l-780 -1577h-313l663 1313h-688z" />
<glyph unicode="8" horiz-adv-x="1245" d="M133 479q0 111 45 214.5t131 183.5q-111 131 -110 290q0 88 32.5 166t89 136.5t134 93t168.5 34.5q90 0 167.5 -34.5t135 -93t90.5 -136.5t33 -166q0 -158 -113 -290q88 -80 133 -183.5t45 -214.5q0 -98 -38 -189t-104.5 -160t-156.5 -109.5t-192 -40.5t-192.5 40.5 t-156 109.5t-103.5 160t-38 189zM389 483q0 -49 17.5 -91t48 -73.5t73.5 -49t95 -17.5q51 0 94 17.5t73.5 49t48 73.5t17.5 91t-17.5 94.5t-48 78t-73.5 52t-94 19.5t-94.5 -19.5t-74 -52t-48 -78t-17.5 -94.5zM457 1167q0 -68 47 -118t119 -50q70 0 119 50t49 118 q0 33 -13.5 65t-36 54.5t-53.5 36.5t-65 14q-70 0 -118 -51t-48 -119z" />
<glyph unicode="9" horiz-adv-x="1310" d="M143 1073q0 106 39 202.5t107.5 168.5t163 115t202.5 43q111 0 204 -42t162 -115t107.5 -169.5t38.5 -202.5q0 -98 -35.5 -186t-89.5 -172l-448 -715h-305l340 545q-111 6 -200 52t-152.5 118.5t-98.5 166t-35 191.5zM401 1073q0 -53 19.5 -100t53.5 -83t80 -57.5 t101 -21.5t101.5 21.5t80 57.5t53 83t19.5 100q0 51 -19.5 99.5t-53 84t-79.5 57t-102 21.5q-55 0 -101 -21.5t-80 -57t-53.5 -84t-19.5 -99.5z" />
<glyph unicode=":" horiz-adv-x="684" d="M143 176q0 41 15.5 77t42 63.5t62.5 43t77 15.5t78 -15.5t63.5 -43t42 -63.5t15.5 -77q0 -82 -56.5 -139t-142.5 -57q-82 0 -139.5 57t-57.5 139zM143 1042q0 41 15.5 77t42 63.5t62.5 43t77 15.5t78 -15.5t63.5 -43t42 -63.5t15.5 -77q0 -82 -56.5 -139t-142.5 -57 q-82 0 -139.5 57.5t-57.5 138.5z" />
<glyph unicode=";" horiz-adv-x="724" d="M164 1042q0 41 15.5 77t42 63.5t62 43t76.5 15.5t78 -15.5t63.5 -43t42 -63.5t15.5 -77q0 -82 -56.5 -139t-142.5 -57q-82 0 -139 57.5t-57 138.5zM205 207h315l-102 -608h-213v608z" />
<glyph unicode="&#x3c;" horiz-adv-x="1097" d="M154 698v183l790 385v-265l-442 -217l442 -233v-272z" />
<glyph unicode="=" horiz-adv-x="1142" d="M154 373v280h835v-280h-835zM154 926v280h835v-280h-835z" />
<glyph unicode="&#x3e;" horiz-adv-x="1097" d="M154 279v272l442 233l-442 217v265l790 -385v-183z" />
<glyph unicode="?" horiz-adv-x="1136" d="M154 1174q0 92 25.5 177t77.5 148.5t129 101t181 37.5q88 0 165 -32.5t132.5 -90t87 -135.5t31.5 -168q0 -102 -44 -178t-97.5 -133t-97.5 -99t-44 -77v-221h-266v223q0 90 44 155.5t97.5 119t97.5 102.5t44 108q0 61 -41 110.5t-103 49.5q-43 0 -72.5 -18.5t-48 -48 t-26.5 -64.5t-8 -67h-264zM369 178q0 39 15 76t42 63.5t63.5 43t77.5 16.5t78 -15.5t63.5 -43t42 -63.5t15.5 -77q0 -43 -15.5 -79t-43 -62.5t-63.5 -41.5t-77 -15t-76.5 15t-63.5 41.5t-43 63.5t-15 78z" />
<glyph unicode="@" />
<glyph unicode="A" horiz-adv-x="1433" d="M0 0l717 1638l717 -1638h-291l-117 266h-618l-117 -266h-291zM524 532h385l-192 443z" />
<glyph unicode="B" horiz-adv-x="1378" d="M205 0v1577h538q94 0 178.5 -36t148 -99.5t99 -147.5t35.5 -178q0 -74 -23.5 -144.5t-66.5 -129.5q94 -66 148.5 -165t54.5 -216q0 -96 -36 -179t-99.5 -146.5t-147.5 -99.5t-178 -36h-385h-266zM471 266h385q39 0 75 15.5t62.5 42t42 61.5t15.5 76q0 39 -15.5 74.5 t-42 62.5t-62.5 42t-75 15h-385v-389zM471 922h272q39 0 75 15t62.5 42t42 61.5t15.5 75.5q0 39 -15.5 75t-42 62.5t-62.5 42t-75 15.5h-272v-389z" />
<glyph unicode="C" horiz-adv-x="1308" d="M61 788q0 168 63.5 315.5t174.5 257t258.5 173t314.5 63.5q98 0 193.5 -23.5t181.5 -68.5v-327q-76 72 -173 110.5t-202 38.5q-113 0 -211 -42t-171.5 -115.5t-115.5 -172t-42 -209.5t42 -209t115.5 -171.5t171.5 -115.5t211 -42q104 0 201.5 39t173.5 110v-327 q-86 -45 -181 -68.5t-194 -23.5q-168 0 -315 63t-258 173t-174.5 257.5t-63.5 314.5z" />
<glyph unicode="D" horiz-adv-x="1513" d="M205 0v1577h459q164 0 307 -61.5t250.5 -169t169 -251t61.5 -307.5t-61.5 -307t-169 -250.5t-251 -169t-306.5 -61.5h-459zM471 266h193q109 0 204 41t165.5 111.5t111.5 165.5t41 204t-41 204t-111.5 166t-166 112t-203.5 41h-193v-1045z" />
<glyph unicode="E" horiz-adv-x="1351" d="M205 0v1577h983v-266h-717v-389h635v-267h-635v-389h717v-266h-983z" />
<glyph unicode="F" horiz-adv-x="1208" d="M205 0v1577h983v-266h-717v-389h635v-267h-635v-655h-266z" />
<glyph unicode="G" horiz-adv-x="1615" d="M61 788q0 168 63.5 315.5t174.5 257t258.5 173t314.5 63.5q160 0 304.5 -59t261.5 -170l-191 -190q-76 72 -173 110.5t-202 38.5q-113 0 -211 -42t-171.5 -115.5t-115.5 -172t-42 -209.5t42 -209t115.5 -171.5t172 -115.5t210.5 -42q86 0 168 25.5t154 78.5v301h-320v267 h568v-701l-4 -12q-117 -111 -261.5 -170t-304.5 -59q-168 0 -315 63t-258 173t-174.5 257.5t-63.5 314.5z" />
<glyph unicode="H" horiz-adv-x="1517" d="M205 0v1577h266v-655h576v655h266v-1577h-266v655h-576v-655h-266z" />
<glyph unicode="I" horiz-adv-x="675" d="M205 0v1577h266v-1577h-266z" />
<glyph unicode="J" horiz-adv-x="1183" d="M123 387v215h266v-215q0 -49 26.5 -82t67.5 -49t88 -16t88 16t68 49t27 82v1190h266v-1190q0 -137 -66.5 -227t-166 -135t-216 -45t-216 46t-166 136t-66.5 225z" />
<glyph unicode="K" horiz-adv-x="1304" d="M205 0v1577h266v-670l506 670h328l-615 -789l615 -788h-328l-506 670v-670h-266z" />
<glyph unicode="L" horiz-adv-x="1198" d="M205 0v1577h266v-1311h717v-266h-983z" />
<glyph unicode="M" horiz-adv-x="1908" d="M205 0v1638l749 -1026l750 1026v-1638h-264v825l-486 -628l-483 628v-825h-266z" />
<glyph unicode="N" horiz-adv-x="1624" d="M205 0v1638l948 -1028v967h266v-1643l-948 1029v-963h-266z" />
<glyph unicode="O" horiz-adv-x="1740" d="M61 788q0 168 63.5 315.5t173.5 257t257 173t315 63.5t315.5 -63.5t257 -173t173 -257t63.5 -315.5t-63.5 -315t-173 -257t-257 -173t-315.5 -63t-315 63t-257 173t-173.5 257.5t-63.5 314.5zM332 788q0 -111 42 -209t115.5 -171.5t172 -115.5t208.5 -42q111 0 209.5 42 t172 115.5t115.5 171.5t42 209t-42 209.5t-115.5 172t-172 115.5t-209.5 42t-209 -42t-171.5 -115.5t-115.5 -172t-42 -209.5z" />
<glyph unicode="P" horiz-adv-x="1306" d="M205 0v1577h620q94 0 178 -36t147.5 -99.5t99.5 -147.5t36 -178q0 -96 -36 -179t-99.5 -146.5t-147 -99.5t-178.5 -36h-354v-655h-266zM471 922h354q39 0 75 15t62.5 42t42 61.5t15.5 75.5q0 39 -15.5 75t-42 62.5t-62.5 42t-75 15.5h-354v-389z" />
<glyph unicode="Q" horiz-adv-x="1740" d="M61 791q0 166 63.5 313t173.5 256.5t257 173t315 63.5t315.5 -63.5t257 -173t173 -257t63.5 -312.5q0 -147 -51 -281.5t-142 -241t-216 -179.5t-275 -97v-248h-250v248q-150 25 -274.5 97.5t-215.5 179t-142.5 240.5t-51.5 282zM332 791q0 -92 29.5 -176.5t84 -154 t130 -119.5t169.5 -75v254h250v-254q94 25 170 75t130.5 119.5t84 153.5t29.5 177q0 111 -42 209t-115.5 171.5t-172 115.5t-209.5 42t-209 -42t-171.5 -115.5t-115.5 -172t-42 -208.5z" />
<glyph unicode="R" horiz-adv-x="1357" d="M205 0v1577h620q94 0 178 -36t147.5 -99.5t99.5 -147.5t36 -178q0 -78 -24.5 -149.5t-69.5 -130t-107.5 -101.5t-138.5 -63l350 -672h-307l-327 655h-191v-655h-266zM471 922h354q39 0 75 15t62.5 42t42 61.5t15.5 75.5q0 39 -15.5 75t-42 62.5t-62.5 42t-75 15.5h-354 v-389z" />
<glyph unicode="S" horiz-adv-x="1226" d="M102 332l226 100q29 -80 77 -124t103 -60q35 -10 71 -11q21 -1 41 3q58 10 104 36.5t74.5 68.5t28.5 91q0 63 -47 106.5t-118.5 82.5t-154.5 78.5t-154.5 97t-119 138.5t-47.5 202q0 92 34 174t94.5 145.5t141.5 100t173 36.5q147 0 257.5 -73.5t170.5 -208.5l-232 -107 q-39 82 -105 112q-45 20 -89 20q-21 0 -41 -4q-64 -14 -111 -65.5t-47 -129.5q0 -61 49 -104.5t123 -80t159 -77.5t158.5 -98.5t123 -140.5t49.5 -204q0 -109 -43 -193.5t-115 -143t-166 -89t-197 -30.5q-172 0 -294.5 96t-176.5 256z" />
<glyph unicode="T" horiz-adv-x="1136" d="M31 1311v266h1075v-266h-404v-1311h-266v1311h-405z" />
<glyph unicode="U" horiz-adv-x="1552" d="M154 602v975h266v-975q0 -74 27.5 -138.5t76.5 -113.5t113.5 -76.5t138.5 -27.5t138.5 27.5t113.5 76.5t77 113.5t28 138.5v975h266v-975q0 -129 -49 -242q-37 -86 -95.5 -156.5t-133 -120.5t-163 -76.5t-182.5 -26.5q-129 0 -242.5 49t-197.5 133t-133 197.5t-49 242.5z " />
<glyph unicode="V" horiz-adv-x="1433" d="M0 1577h291l426 -975l426 975h291l-717 -1638z" />
<glyph unicode="W" horiz-adv-x="2033" d="M0 1577h291l426 -975l155 354l-272 621h291l127 -289l125 289h291l-271 -621l154 -354l426 975h291l-717 -1638l-299 686l-301 -686z" />
<glyph unicode="X" horiz-adv-x="1236" d="M0 0l465 788l-465 789h309l309 -526l312 526h307l-463 -789l463 -788h-307l-312 526l-309 -526h-309z" />
<glyph unicode="Y" horiz-adv-x="1236" d="M0 1577h309l309 -526l312 526h307l-485 -825v-752h-267v752z" />
<glyph unicode="Z" horiz-adv-x="1277" d="M20 0l773 1311h-736v266h1200l-772 -1311h772v-266h-1237z" />
<glyph unicode="[" horiz-adv-x="897" d="M205 -410v2417h549v-223h-285v-1970h285v-224h-549z" />
<glyph unicode="\" horiz-adv-x="1308" d="M82 1638h295l850 -2048h-295z" />
<glyph unicode="]" horiz-adv-x="901" d="M143 -186h283l6 1970h-282v223h546l-6 -2417h-547v224z" />
<glyph unicode="^" horiz-adv-x="2170" />
<glyph unicode="_" horiz-adv-x="1552" d="M205 0v236h1143v-236h-1143z" />
<glyph unicode="`" horiz-adv-x="0" d="M-250 1939l275 164l266 -403h-275z" />
<glyph unicode="a" horiz-adv-x="1433" d="M0 0l717 1638l717 -1638h-291l-117 266h-618l-117 -266h-291zM524 532h385l-192 443z" />
<glyph unicode="b" horiz-adv-x="1378" d="M205 0v1577h538q94 0 178.5 -36t148 -99.5t99 -147.5t35.5 -178q0 -74 -23.5 -144.5t-66.5 -129.5q94 -66 148.5 -165t54.5 -216q0 -96 -36 -179t-99.5 -146.5t-147.5 -99.5t-178 -36h-385h-266zM471 266h385q39 0 75 15.5t62.5 42t42 61.5t15.5 76q0 39 -15.5 74.5 t-42 62.5t-62.5 42t-75 15h-385v-389zM471 922h272q39 0 75 15t62.5 42t42 61.5t15.5 75.5q0 39 -15.5 75t-42 62.5t-62.5 42t-75 15.5h-272v-389z" />
<glyph unicode="c" horiz-adv-x="1390" d="M61 788q0 168 63.5 315.5t174.5 257t258.5 173t314.5 63.5q98 0 193.5 -23.5t181.5 -68.5v-327q-76 72 -173 110.5t-202 38.5q-113 0 -211 -42t-171.5 -115.5t-115.5 -172t-42 -209.5t42 -209t115.5 -171.5t171.5 -115.5t211 -42q104 0 201.5 39t173.5 110v-327 q-86 -45 -181 -68.5t-194 -23.5q-168 0 -315 63t-258 173t-174.5 257.5t-63.5 314.5z" />
<glyph unicode="d" horiz-adv-x="1554" d="M205 0v1577h459q164 0 307 -61.5t250.5 -169t169 -251t61.5 -307.5t-61.5 -307t-169 -250.5t-251 -169t-306.5 -61.5h-459zM471 266h193q109 0 204 41t165.5 111.5t111.5 165.5t41 204t-41 204t-111.5 166t-166 112t-203.5 41h-193v-1045z" />
<glyph unicode="e" horiz-adv-x="1351" d="M205 0v1577h983v-266h-717v-389h635v-267h-635v-389h717v-266h-983z" />
<glyph unicode="f" horiz-adv-x="1208" d="M205 0v1577h983v-266h-717v-389h635v-267h-635v-655h-266z" />
<glyph unicode="g" horiz-adv-x="1615" d="M61 788q0 168 63.5 315.5t174.5 257t258.5 173t314.5 63.5q160 0 304.5 -59t261.5 -170l-191 -190q-76 72 -173 110.5t-202 38.5q-113 0 -211 -42t-171.5 -115.5t-115.5 -172t-42 -209.5t42 -209t115.5 -171.5t172 -115.5t210.5 -42q86 0 168 25.5t154 78.5v301h-320v267 h568v-701l-4 -12q-117 -111 -261.5 -170t-304.5 -59q-168 0 -315 63t-258 173t-174.5 257.5t-63.5 314.5z" />
<glyph unicode="h" horiz-adv-x="1517" d="M205 0v1577h266v-655h576v655h266v-1577h-266v655h-576v-655h-266z" />
<glyph unicode="i" horiz-adv-x="675" d="M205 0v1577h266v-1577h-266z" />
<glyph unicode="j" horiz-adv-x="1183" d="M123 387v215h266v-215q0 -49 26.5 -82t67.5 -49t88 -16t88 16t68 49t27 82v1190h266v-1190q0 -137 -66.5 -227t-166 -135t-216 -45t-216 46t-166 136t-66.5 225z" />
<glyph unicode="k" horiz-adv-x="1304" d="M205 0v1577h266v-670l506 670h328l-615 -789l615 -788h-328l-506 670v-670h-266z" />
<glyph unicode="l" horiz-adv-x="1198" d="M205 0v1577h266v-1311h717v-266h-983z" />
<glyph unicode="m" horiz-adv-x="1908" d="M205 0v1638l749 -1026l750 1026v-1638h-264v825l-486 -628l-483 628v-825h-266z" />
<glyph unicode="n" horiz-adv-x="1624" d="M205 0v1638l948 -1028v967h266v-1643l-948 1029v-963h-266z" />
<glyph unicode="o" horiz-adv-x="1740" d="M61 788q0 168 63.5 315.5t173.5 257t257 173t315 63.5t315.5 -63.5t257 -173t173 -257t63.5 -315.5t-63.5 -315t-173 -257t-257 -173t-315.5 -63t-315 63t-257 173t-173.5 257.5t-63.5 314.5zM332 788q0 -111 42 -209t115.5 -171.5t172 -115.5t208.5 -42q111 0 209.5 42 t172 115.5t115.5 171.5t42 209t-42 209.5t-115.5 172t-172 115.5t-209.5 42t-209 -42t-171.5 -115.5t-115.5 -172t-42 -209.5z" />
<glyph unicode="p" horiz-adv-x="1306" d="M205 0v1577h620q94 0 178 -36t147.5 -99.5t99.5 -147.5t36 -178q0 -96 -36 -179t-99.5 -146.5t-147 -99.5t-178.5 -36h-354v-655h-266zM471 922h354q39 0 75 15t62.5 42t42 61.5t15.5 75.5q0 39 -15.5 75t-42 62.5t-62.5 42t-75 15.5h-354v-389z" />
<glyph unicode="q" horiz-adv-x="1740" d="M61 791q0 166 63.5 313t173.5 256.5t257 173t315 63.5t315.5 -63.5t257 -173t173 -257t63.5 -312.5q0 -147 -51 -281.5t-142 -241t-216 -179.5t-275 -97v-248h-250v248q-150 25 -274.5 97.5t-215.5 179t-142.5 240.5t-51.5 282zM332 791q0 -92 29.5 -176.5t84 -154 t130 -119.5t169.5 -75v254h250v-254q94 25 170 75t130.5 119.5t84 153.5t29.5 177q0 111 -42 209t-115.5 171.5t-172 115.5t-209.5 42t-209 -42t-171.5 -115.5t-115.5 -172t-42 -208.5z" />
<glyph unicode="r" horiz-adv-x="1337" d="M205 0v1577h620q94 0 178 -36t147.5 -99.5t99.5 -147.5t36 -178q0 -78 -24.5 -149.5t-69.5 -130t-107.5 -101.5t-138.5 -63l350 -672h-307l-327 655h-191v-655h-266zM471 922h354q39 0 75 15t62.5 42t42 61.5t15.5 75.5q0 39 -15.5 75t-42 62.5t-62.5 42t-75 15.5h-354 v-389z" />
<glyph unicode="s" horiz-adv-x="1226" d="M102 332l226 100q29 -80 77 -124t103 -60q35 -10 71 -11q21 -1 41 3q58 10 104 36.5t74.5 68.5t28.5 91q0 63 -47 106.5t-118.5 82.5t-154.5 78.5t-154.5 97t-119 138.5t-47.5 202q0 92 34 174t94.5 145.5t141.5 100t173 36.5q147 0 257.5 -73.5t170.5 -208.5l-232 -107 q-39 82 -105 112q-45 20 -89 20q-21 0 -41 -4q-64 -14 -111 -65.5t-47 -129.5q0 -61 49 -104.5t123 -80t159 -77.5t158.5 -98.5t123 -140.5t49.5 -204q0 -109 -43 -193.5t-115 -143t-166 -89t-197 -30.5q-172 0 -294.5 96t-176.5 256z" />
<glyph unicode="t" horiz-adv-x="1136" d="M31 1311v266h1075v-266h-404v-1311h-266v1311h-405z" />
<glyph unicode="u" horiz-adv-x="1552" d="M154 602v975h266v-975q0 -74 27.5 -138.5t76.5 -113.5t113.5 -76.5t138.5 -27.5t138.5 27.5t113.5 76.5t77 113.5t28 138.5v975h266v-975q0 -129 -49 -242q-37 -86 -95.5 -156.5t-133 -120.5t-163 -76.5t-182.5 -26.5q-129 0 -242.5 49t-197.5 133t-133 197.5t-49 242.5z " />
<glyph unicode="v" horiz-adv-x="1433" d="M0 1577h291l426 -975l426 975h291l-717 -1638z" />
<glyph unicode="w" horiz-adv-x="2033" d="M0 1577h291l426 -975l155 354l-272 621h291l127 -289l125 289h291l-271 -621l154 -354l426 975h291l-717 -1638l-299 686l-301 -686z" />
<glyph unicode="x" horiz-adv-x="1236" d="M0 0l465 788l-465 789h309l309 -526l312 526h307l-463 -789l463 -788h-307l-312 526l-309 -526h-309z" />
<glyph unicode="y" horiz-adv-x="1236" d="M0 1577h309l309 -526l312 526h307l-485 -825v-752h-267v752z" />
<glyph unicode="z" horiz-adv-x="1277" d="M20 0l773 1311h-736v266h1200l-772 -1311h772v-266h-1237z" />
<glyph unicode="|" horiz-adv-x="634" d="M205 -465v2042h225v-2042h-225z" />
<glyph unicode="~" horiz-adv-x="1556" d="M264 688q23 45 52.5 97.5t67.5 97.5t85 74.5t106 29.5q49 0 98.5 -20.5t91.5 -46t74.5 -46t53.5 -20.5q8 0 21.5 20.5t25.5 47t22.5 51t14.5 33.5l225 -91q-23 -49 -50.5 -102t-64 -98t-84 -74t-110.5 -29q-49 0 -98.5 20.5t-91 46.5t-74.5 46t-54 20q-10 0 -22 -20 t-24.5 -47t-22.5 -52.5t-14 -33.5z" />
<glyph />
<glyph unicode="&#xa0;" />
<glyph unicode="&#xa6;" />
<glyph unicode="&#xa8;" horiz-adv-x="0" d="M-465 1939q0 82 57.5 139.5t139.5 57.5q86 0 142 -57.5t56 -139.5q0 -86 -56 -142t-142 -56q-82 0 -139.5 56t-57.5 142zM68 1939q0 82 57 139.5t139 57.5q86 0 142.5 -57.5t56.5 -139.5q0 -86 -56.5 -142t-142.5 -56q-82 0 -139 56t-57 142z" />
<glyph unicode="&#xa9;" horiz-adv-x="1875" d="M164 774q0 160 60.5 301.5t166 246.5t246.5 165.5t301 60.5t301 -60.5t246.5 -165.5t166 -246.5t60.5 -301.5t-60.5 -301t-166 -246.5t-246.5 -166t-301 -60.5t-301 60.5t-246.5 166t-166 246.5t-60.5 301zM236 774q0 -145 55 -273t150.5 -223.5t223.5 -150.5t273 -55 t273 55t223.5 150.5t150.5 223.5t55 273t-55 273.5t-150.5 223.5t-223.5 150.5t-273 55.5t-273 -55.5t-223.5 -150.5t-150.5 -223t-55 -274zM500 506v536q0 16 10 26.5t25 10.5q37 0 36 -37v-536q0 -35 -36 -35q-14 0 -24.5 9t-10.5 26zM635 774q0 35 35 35h133q37 0 37 -35 t-37 -35h-133q-35 0 -35 35zM903 506v536q0 37 35 37t35 -37v-536q0 -35 -35 -35t-35 35zM1047 750q-25 25 0 49l270 268q6 8 11 9t15 1h5q6 -2 8 -3t4 -1l6 -6q25 -25 0 -49l-244 -244l244 -244q25 -24 0 -49t-49 0z" />
<glyph unicode="&#xad;" horiz-adv-x="1122" d="M143 672v233h836v-233h-836z" />
<glyph unicode="&#xae;" horiz-adv-x="1875" d="M379 1038q0 117 44 218.5t119.5 177t177 119.5t218.5 44t218 -44t177 -119.5t120 -177t44 -218.5t-44 -218t-120 -177t-177 -120t-218 -44t-218.5 44t-177 120t-119.5 177.5t-44 217.5zM479 1038q0 -96 36 -179t98.5 -145.5t145.5 -98t179 -35.5q94 0 178 35.5t146.5 98 t98.5 145.5t36 179q0 94 -36 178t-98.5 146.5t-146.5 98.5t-178 36q-96 0 -179 -36t-145.5 -98.5t-98.5 -146t-36 -178.5zM764 741v584h229q72 0 121 -50t49 -122q0 -57 -34.5 -102t-90.5 -62l129 -248h-114l-121 242h-70v-242h-98zM862 1081h131q29 0 50.5 21.5t21.5 50.5 q0 31 -21.5 52.5t-50.5 21.5h-131v-146z" />
<glyph unicode="&#xaf;" />
<glyph unicode="&#xb2;" />
<glyph unicode="&#xb3;" />
<glyph unicode="&#xb4;" horiz-adv-x="0" d="M-289 1700l266 403l273 -164l-266 -239h-273z" />
<glyph unicode="&#xb6;" />
<glyph unicode="&#xb8;" horiz-adv-x="1626" d="M-70 -344l82 84q27 -29 39 -35t23 -6q23 0 39 16.5t16 40.5q0 23 -16.5 40.5t-38.5 17.5q-10 0 -22.5 -7.5t-39.5 -33.5l-78 77l62 150h121l-62 -70h19q72 0 122 -50t50 -124t-50.5 -124t-121.5 -50q-35 0 -68 16.5t-76 57.5z" />
<glyph unicode="&#xb9;" />
<glyph unicode="&#xba;" horiz-adv-x="1046" d="M92 1176q0 90 34 168.5t92 137t136 92.5t168 34t169 -34t137.5 -92.5t92 -137t33.5 -168.5t-33.5 -168t-92 -136.5t-137.5 -92.5t-169 -34t-168 34t-136 92.5t-92 136t-34 168.5zM311 1176q0 -43 16.5 -82t46 -68t67.5 -45t81 -16t82 16t68.5 45t46 68t16.5 82 t-16.5 81.5t-46 68.5t-68.5 46.5t-82 16.5t-81 -16.5t-67.5 -46.5t-46 -68.5t-16.5 -81.5z" />
<glyph unicode="&#xbc;" />
<glyph unicode="&#xbd;" />
<glyph unicode="&#xbe;" />
<glyph unicode="&#xc0;" horiz-adv-x="1433" d="M0 0l717 1638l717 -1638h-291l-117 266h-618l-117 -266h-291zM324 1939l274 164l266 -403h-274zM524 532h385l-192 443z" />
<glyph unicode="&#xc1;" horiz-adv-x="1433" d="M0 0l717 1638l717 -1638h-291l-117 266h-618l-117 -266h-291zM524 532h385l-192 443zM561 1700l266 403l273 -164l-266 -239h-273z" />
<glyph unicode="&#xc2;" horiz-adv-x="1433" d="M0 0l717 1638l717 -1638h-291l-117 266h-618l-117 -266h-291zM365 1700l225 403h254l225 -403h-213l-139 168l-139 -168h-213zM524 532h385l-192 443z" />
<glyph unicode="&#xc3;" horiz-adv-x="1433" d="M0 0l717 1638l717 -1638h-291l-117 266h-618l-117 -266h-291zM207 1755q23 45 52.5 97.5t67.5 97.5t85 74.5t106 29.5q49 0 98.5 -20.5t91.5 -46t74.5 -46t53.5 -20.5q8 0 21 20.5t25.5 47t22.5 51t15 35.5l225 -93q-23 -49 -50.5 -102t-64.5 -97t-85 -74t-109 -30 q-49 0 -98.5 20.5t-91.5 46.5t-74.5 46t-53.5 20q-10 0 -22.5 -20t-24.5 -47t-22.5 -52.5t-14.5 -33.5zM524 532h385l-192 443z" />
<glyph unicode="&#xc4;" horiz-adv-x="1433" d="M0 0l717 1638l717 -1638h-291l-117 266h-618l-117 -266h-291zM254 1939q0 82 57.5 139.5t139.5 57.5t139 -57.5t57 -139.5q0 -86 -57.5 -142t-138.5 -56q-82 0 -139.5 56t-57.5 142zM524 532h385l-192 443zM786 1939q0 82 57.5 139.5t139.5 57.5t139.5 -57.5t57.5 -139.5 q0 -86 -57.5 -142t-139.5 -56t-139.5 56t-57.5 142z" />
<glyph unicode="&#xc5;" horiz-adv-x="1433" d="M0 0l649 1481q-55 12 -102 40.5t-81 70.5t-53.5 94.5t-19.5 111.5q0 68 25.5 126t69.5 102.5t102.5 70t126.5 25.5t126 -25.5t102 -70t69.5 -102.5t25.5 -126q0 -59 -19.5 -111.5t-53 -93.5t-79.5 -70.5t-102 -41.5l648 -1481h-291l-117 266h-618l-117 -266h-291z M524 532h385l-192 443zM602 1798q0 -47 34 -81t81 -34t80.5 34t33.5 81t-33.5 81t-80.5 34t-81 -34t-34 -81z" />
<glyph unicode="&#xc6;" />
<glyph unicode="&#xc7;" horiz-adv-x="1390" d="M61 788q0 168 63.5 315.5t174.5 257t258.5 173t314.5 63.5q98 0 193.5 -23.5t181.5 -68.5v-327q-76 72 -173 110.5t-202 38.5q-113 0 -211 -42t-171.5 -115.5t-115.5 -172t-42 -209.5t42 -209t115.5 -171.5t172 -115.5t210.5 -42q104 0 201.5 39t173.5 110v-327 q-86 -45 -181 -68.5t-194 -23.5h-12l-43 -50h19q70 0 120 -50t50 -124t-50.5 -124t-119.5 -50q-35 0 -69 16.5t-75 57.5l80 84q29 -29 41 -35t23 -6q23 0 39 16.5t16 40.5q0 23 -16.5 40.5t-38.5 17.5q-10 0 -22.5 -7.5t-41.5 -33.5l-76 77l56 138q-145 23 -271.5 93.5 t-219.5 177t-146.5 242.5t-53.5 287z" />
<glyph unicode="&#xc8;" horiz-adv-x="1351" d="M205 0v1577h983v-266h-717v-389h635v-267h-635v-389h717v-266h-983zM416 1939l274 164l266 -403h-274z" />
<glyph unicode="&#xc9;" horiz-adv-x="1351" d="M205 0v1577h983v-266h-717v-389h635v-267h-635v-389h717v-266h-983zM477 1700l266 403l275 -164l-266 -239h-275z" />
<glyph unicode="&#xca;" horiz-adv-x="1351" d="M205 0v1577h983v-266h-717v-389h635v-267h-635v-389h717v-266h-983zM354 1700l226 403h254l225 -403h-213l-139 168l-140 -168h-213z" />
<glyph unicode="&#xcb;" horiz-adv-x="1351" d="M205 0v1577h983v-266h-717v-389h635v-267h-635v-389h717v-266h-983zM231 1939q0 82 57.5 139.5t139.5 57.5t139.5 -57.5t57.5 -139.5q0 -86 -57.5 -142t-139.5 -56t-139.5 56t-57.5 142zM764 1939q0 82 57.5 139.5t139.5 57.5t139 -57.5t57 -139.5q0 -86 -57.5 -142 t-138.5 -56q-82 0 -139.5 56t-57.5 142z" />
<glyph unicode="&#xcc;" horiz-adv-x="675" d="M-70 1939l275 164l266 -403h-274zM205 0v1577h266v-1577h-266z" />
<glyph unicode="&#xcd;" horiz-adv-x="675" d="M205 0v1577h266v-1577h-266zM211 1700l266 403l273 -164l-267 -239h-272z" />
<glyph unicode="&#xce;" horiz-adv-x="675" d="M-14 1700l225 403h254l225 -403h-213l-139 168l-139 -168h-213zM205 0v1577h266v-1577h-266z" />
<glyph unicode="&#xcf;" horiz-adv-x="675" d="M-125 1939q0 82 57.5 139.5t139.5 57.5t139 -57.5t57 -139.5q0 -86 -57 -142t-139 -56t-139.5 56t-57.5 142zM205 0v1577h266v-1577h-266zM408 1939q0 82 57 139.5t139 57.5t139.5 -57.5t57.5 -139.5q0 -86 -57.5 -142t-139.5 -56t-139 56t-57 142z" />
<glyph unicode="&#xd0;" horiz-adv-x="1513" d="M20 672v233h185v672h459q164 0 307 -61.5t250.5 -169t169 -251t61.5 -307.5t-61.5 -307t-169 -250.5t-251 -169t-306.5 -61.5h-459v672h-185zM471 266h193q109 0 204 41t165.5 111.5t111.5 166t41 203.5q0 109 -41 204t-111.5 166t-166 112t-203.5 41h-193v-406h385v-233 h-385v-406z" />
<glyph unicode="&#xd1;" horiz-adv-x="1624" d="M205 0v1638l948 -1028v967h266v-1643l-948 1029v-963h-266zM344 1755q23 45 52.5 97.5t67.5 97.5t85 74.5t104 29.5q49 0 98.5 -20.5t91.5 -46t75.5 -46t54.5 -20.5q8 0 20.5 20.5t24.5 47t22.5 51t14.5 35.5l225 -93q-23 -49 -50.5 -102t-63.5 -97t-84 -74t-109 -30 q-51 0 -99.5 20.5t-90.5 46.5t-75.5 46t-54.5 20q-8 0 -20 -20t-24.5 -47t-23 -52.5t-14.5 -33.5z" />
<glyph unicode="&#xd2;" horiz-adv-x="1740" d="M61 788q0 168 63.5 315.5t173.5 257t257 173t315 63.5t315.5 -63.5t257 -173t173 -257t63.5 -315.5t-63.5 -315t-173 -257t-257 -173t-315.5 -63t-315 63t-257 173t-173.5 257.5t-63.5 314.5zM332 788q0 -111 42 -209t115.5 -171.5t172 -115.5t208.5 -42q111 0 209.5 42 t172 115.5t115.5 171.5t42 209t-42 209.5t-115.5 172t-172 115.5t-209.5 42t-209 -42t-171.5 -115.5t-115.5 -172t-42 -209.5zM498 1939l274 164l266 -403h-274z" />
<glyph unicode="&#xd3;" horiz-adv-x="1740" d="M61 788q0 168 63.5 315.5t173.5 257t257 173t315 63.5t315.5 -63.5t257 -173t173 -257t63.5 -315.5t-63.5 -315t-173 -257t-257 -173t-315.5 -63t-315 63t-257 173t-173.5 257.5t-63.5 314.5zM332 788q0 -111 42 -209t115.5 -171.5t172 -115.5t208.5 -42q111 0 209.5 42 t172 115.5t115.5 171.5t42 209t-42 209.5t-115.5 172t-172 115.5t-209.5 42t-209 -42t-171.5 -115.5t-115.5 -172t-42 -209.5zM684 1700l266 403l273 -164l-267 -239h-272z" />
<glyph unicode="&#xd4;" horiz-adv-x="1740" d="M61 788q0 168 63.5 315.5t173.5 257t257 173t315 63.5t315.5 -63.5t257 -173t173 -257t63.5 -315.5t-63.5 -315t-173 -257t-257 -173t-315.5 -63t-315 63t-257 173t-173.5 257.5t-63.5 314.5zM332 788q0 -111 42 -209t115.5 -171.5t172 -115.5t208.5 -42q111 0 209.5 42 t172 115.5t115.5 171.5t42 209t-42 209.5t-115.5 172t-172 115.5t-209.5 42t-209 -42t-171.5 -115.5t-115.5 -172t-42 -209.5zM518 1700l225 403h254l226 -403h-213l-140 168l-139 -168h-213z" />
<glyph unicode="&#xd5;" horiz-adv-x="1740" d="M61 788q0 168 63.5 315.5t173.5 257t257 173t315 63.5t315.5 -63.5t257 -173t173 -257t63.5 -315.5t-63.5 -315t-173 -257t-257 -173t-315.5 -63t-315 63t-257 173t-173.5 257.5t-63.5 314.5zM332 788q0 -111 42 -209t115.5 -171.5t172 -115.5t208.5 -42q111 0 209.5 42 t172 115.5t115.5 171.5t42 209t-42 209.5t-115.5 172t-172 115.5t-209.5 42t-209 -42t-171.5 -115.5t-115.5 -172t-42 -209.5zM401 1755q23 45 52.5 97.5t67.5 97.5t85 74.5t107 29.5q49 0 98 -20.5t91 -46t75 -46t53 -20.5q8 0 21.5 20.5t26 47t22.5 51t14 35.5l225 -93 q-23 -49 -50 -102t-64 -97t-85 -74t-110 -30q-49 0 -98 20.5t-91 46.5t-75 46t-53 20q-10 0 -22.5 -20t-25 -47t-22.5 -52.5t-14 -33.5z" />
<glyph unicode="&#xd6;" horiz-adv-x="1740" d="M61 788q0 168 63.5 315.5t173.5 257t257 173t315 63.5t315.5 -63.5t257 -173t173 -257t63.5 -315.5t-63.5 -315t-173 -257t-257 -173t-315.5 -63t-315 63t-257 173t-173.5 257.5t-63.5 314.5zM332 788q0 -111 42 -209t115.5 -171.5t172 -115.5t208.5 -42q111 0 209.5 42 t172 115.5t115.5 171.5t42 209t-42 209.5t-115.5 172t-172 115.5t-209.5 42t-209 -42t-171.5 -115.5t-115.5 -172t-42 -209.5zM408 1939q0 82 57 139.5t139 57.5t139.5 -57.5t57.5 -139.5q0 -86 -57.5 -142t-139.5 -56t-139 56t-57 142zM940 1939q0 82 57.5 139.5 t139.5 57.5t139 -57.5t57 -139.5q0 -86 -57 -142t-139 -56t-139.5 56t-57.5 142z" />
<glyph unicode="&#xd7;" horiz-adv-x="1257" d="M154 481l309 307l-289 291l168 168l289 -289l309 310l164 -166l-307 -309l288 -289l-170 -168l-288 289l-308 -310z" />
<glyph unicode="&#xd8;" horiz-adv-x="1740" d="M61 788q0 168 63.5 315.5t173.5 257t257 173t315 63.5q141 0 265.5 -45t228.5 -122l127 126l188 -188l-133 -133q63 -98 98 -211t35 -236q0 -168 -63.5 -315t-173 -257t-257 -173t-315.5 -63q-123 0 -235.5 34.5t-210.5 98.5l-92 -93l-189 189l86 86q-78 104 -123 228 t-45 265zM332 788q0 -86 23.5 -160.5t66.5 -140.5l749 750q-66 43 -140.5 66.5t-160.5 23.5q-111 0 -209 -42t-171.5 -115.5t-115.5 -172t-42 -209.5zM621 309q115 -59 249 -59q111 0 209.5 42t172 115.5t115.5 171.5t42 209q0 135 -59 250z" />
<glyph unicode="&#xd9;" horiz-adv-x="1552" d="M154 602v975h266v-975q0 -74 27.5 -138.5t76.5 -113.5t113.5 -76.5t138.5 -27.5t138.5 27.5t113.5 76.5t77 113.5t28 138.5v975h266v-975q0 -129 -49 -242q-37 -86 -95.5 -156.5t-133 -120.5t-163 -76.5t-182.5 -26.5q-129 0 -242.5 49t-197.5 133t-133 197.5t-49 242.5z M403 1939l275 164l266 -403h-274z" />
<glyph unicode="&#xda;" horiz-adv-x="1552" d="M154 602v975h266v-975q0 -74 27.5 -138.5t76.5 -113.5t113.5 -76.5t138.5 -27.5t138.5 27.5t113.5 76.5t77 113.5t28 138.5v975h266v-975q0 -129 -49 -242q-37 -86 -95.5 -156.5t-133 -120.5t-163 -76.5t-182.5 -26.5q-129 0 -242.5 49t-197.5 133t-133 197.5t-49 242.5z M608 1700l266 403l275 -164l-266 -239h-275z" />
<glyph unicode="&#xdb;" horiz-adv-x="1552" d="M154 602v975h266v-975q0 -74 27.5 -138.5t76.5 -113.5t113.5 -76.5t138.5 -27.5t138.5 27.5t113.5 76.5t77 113.5t28 138.5v975h266v-975q0 -129 -49 -242q-37 -86 -95.5 -156.5t-133 -120.5t-163 -76.5t-182.5 -26.5q-129 0 -242.5 49t-197.5 133t-133 197.5t-49 242.5z M424 1700l225 403h254l225 -403h-213l-139 168l-139 -168h-213z" />
<glyph unicode="&#xdc;" horiz-adv-x="1552" d="M154 602v975h266v-975q0 -74 27.5 -138.5t76.5 -113.5t113.5 -76.5t138.5 -27.5t138.5 27.5t113.5 76.5t77 113.5t28 138.5v975h266v-975q0 -129 -49 -242q-37 -86 -95.5 -156.5t-133 -120.5t-163 -76.5t-182.5 -26.5q-129 0 -242.5 49t-197.5 133t-133 197.5t-49 242.5z M311 1939q0 41 15.5 77t43 62.5t63.5 42t77 15.5q82 0 139.5 -57.5t57.5 -139.5q0 -86 -57.5 -142t-139.5 -56q-41 0 -77 15.5t-63.5 42t-43 63t-15.5 77.5zM844 1939q0 41 15 77t43 62.5t63.5 42t76.5 15.5q82 0 139.5 -57.5t57.5 -139.5q0 -86 -57.5 -142t-139.5 -56 q-41 0 -76.5 15.5t-63.5 42t-43 63t-15 77.5z" />
<glyph unicode="&#xdd;" horiz-adv-x="1236" d="M0 1577h309l309 -526l312 526h307l-485 -825v-752h-267v752zM473 1700l266 403l273 -164l-267 -239h-272z" />
<glyph unicode="&#xde;" />
<glyph unicode="&#xdf;" horiz-adv-x="1206" d="M205 -2v1221q0 94 31.5 164.5t88 117.5t132 71.5t166.5 24.5q78 0 149.5 -29.5t125.5 -79.5t87 -120t33 -149q0 -70 -34 -132.5t-83 -109.5q119 -70 181.5 -187.5t62.5 -254.5q0 -119 -32 -220.5t-93.5 -176.5t-152.5 -116.5t-208 -41.5v262q66 0 108 24.5t65.5 65.5 t32.5 93t9 110q0 117 -49 196.5t-166 102.5v237q57 12 83 51t26 97q0 59 -42 104t-103 45t-104.5 -45t-43.5 -104v-1221h-270z" />
<glyph unicode="&#xe0;" horiz-adv-x="1433" d="M0 0l717 1638l717 -1638h-291l-117 266h-618l-117 -266h-291zM303 1939l275 164l266 -403h-275zM524 532h385l-192 443z" />
<glyph unicode="&#xe1;" horiz-adv-x="1433" d="M0 0l717 1638l717 -1638h-291l-117 266h-618l-117 -266h-291zM524 532h385l-192 443zM561 1700l266 403l273 -164l-266 -239h-273z" />
<glyph unicode="&#xe2;" horiz-adv-x="1433" d="M0 0l717 1638l717 -1638h-291l-117 266h-618l-117 -266h-291zM365 1700l225 403h254l225 -403h-213l-139 168l-139 -168h-213zM524 532h385l-192 443z" />
<glyph unicode="&#xe3;" horiz-adv-x="1433" d="M0 0l717 1638l717 -1638h-291l-117 266h-618l-117 -266h-291zM248 1755q23 45 52.5 97.5t67.5 97.5t85 74.5t106 29.5q49 0 98.5 -20.5t91.5 -46t74.5 -46t53.5 -20.5q8 0 21 20.5t25.5 47t22.5 51t15 35.5l225 -93q-23 -49 -50.5 -102t-64.5 -97t-85 -74t-109 -30 q-49 0 -98.5 20.5t-91.5 46.5t-74.5 46t-53.5 20q-10 0 -22.5 -20t-24.5 -47t-22.5 -52.5t-14.5 -33.5zM524 532h385l-192 443z" />
<glyph unicode="&#xe4;" horiz-adv-x="1433" d="M0 0l717 1638l717 -1638h-291l-117 266h-618l-117 -266h-291zM254 1939q0 82 57.5 139.5t139.5 57.5t139 -57.5t57 -139.5q0 -86 -57.5 -142t-138.5 -56q-82 0 -139.5 56t-57.5 142zM524 532h385l-192 443zM786 1939q0 82 57.5 139.5t139.5 57.5t139.5 -57.5t57.5 -139.5 q0 -86 -57.5 -142t-139.5 -56t-139.5 56t-57.5 142z" />
<glyph unicode="&#xe5;" horiz-adv-x="1433" d="M0 0l649 1481q-55 12 -102 40.5t-81 70.5t-53.5 94.5t-19.5 111.5q0 68 25.5 126t69.5 102.5t102.5 70t126.5 25.5t126 -25.5t102 -70t69.5 -102.5t25.5 -126q0 -59 -19.5 -111.5t-53 -93.5t-79.5 -70.5t-102 -41.5l648 -1481h-291l-117 266h-618l-117 -266h-291z M524 532h385l-192 443zM602 1798q0 -47 34 -81t81 -34t80.5 34t33.5 81t-33.5 81t-80.5 34t-81 -34t-34 -81z" />
<glyph unicode="&#xe7;" horiz-adv-x="1390" d="M61 788q0 168 63.5 315.5t174.5 257t258.5 173t314.5 63.5q98 0 193.5 -23.5t181.5 -68.5v-327q-76 72 -173 110.5t-202 38.5q-113 0 -211 -42t-171.5 -115.5t-115.5 -172t-42 -209.5t42 -209t115.5 -171.5t172 -115.5t210.5 -42q104 0 201.5 39t173.5 110v-327 q-86 -45 -181 -68.5t-194 -23.5h-12l-43 -50h19q70 0 120 -50t50 -124t-50.5 -124t-119.5 -50q-35 0 -69 16.5t-75 57.5l80 84q29 -29 41 -35t23 -6q23 0 39 16.5t16 40.5q0 23 -16.5 40.5t-38.5 17.5q-10 0 -22.5 -7.5t-41.5 -33.5l-76 77l56 138q-145 23 -271.5 93.5 t-219.5 177t-146.5 242.5t-53.5 287z" />
<glyph unicode="&#xe8;" horiz-adv-x="1351" d="M205 0v1577h983v-266h-717v-389h635v-267h-635v-389h717v-266h-983zM416 1939l274 164l266 -403h-274z" />
<glyph unicode="&#xe9;" horiz-adv-x="1351" d="M205 0v1577h983v-266h-717v-389h635v-267h-635v-389h717v-266h-983zM477 1700l266 403l275 -164l-266 -239h-275z" />
<glyph unicode="&#xea;" horiz-adv-x="1351" d="M205 0v1577h983v-266h-717v-389h635v-267h-635v-389h717v-266h-983zM354 1700l226 403h254l225 -403h-213l-139 168l-140 -168h-213z" />
<glyph unicode="&#xeb;" horiz-adv-x="1351" d="M205 0v1577h983v-266h-717v-389h635v-267h-635v-389h717v-266h-983zM231 1939q0 82 57.5 139.5t139.5 57.5t139.5 -57.5t57.5 -139.5q0 -86 -57.5 -142t-139.5 -56t-139.5 56t-57.5 142zM764 1939q0 82 57.5 139.5t139.5 57.5t139 -57.5t57 -139.5q0 -86 -57.5 -142 t-138.5 -56q-82 0 -139.5 56t-57.5 142z" />
<glyph unicode="&#xec;" horiz-adv-x="675" d="M-70 1939l275 164l266 -403h-274zM205 0v1577h266v-1577h-266z" />
<glyph unicode="&#xed;" horiz-adv-x="675" d="M205 0v1577h266v-1577h-266zM211 1700l266 403l273 -164l-267 -239h-272z" />
<glyph unicode="&#xee;" horiz-adv-x="675" d="M-14 1700l225 403h254l225 -403h-213l-139 168l-139 -168h-213zM205 0v1577h266v-1577h-266z" />
<glyph unicode="&#xef;" horiz-adv-x="675" d="M-125 1939q0 82 57.5 139.5t139.5 57.5t139 -57.5t57 -139.5q0 -86 -57 -142t-139 -56t-139.5 56t-57.5 142zM205 0v1577h266v-1577h-266zM408 1939q0 82 57 139.5t139 57.5t139.5 -57.5t57.5 -139.5q0 -86 -57.5 -142t-139.5 -56t-139 56t-57 142z" />
<glyph unicode="&#xf0;" />
<glyph unicode="&#xf1;" horiz-adv-x="1624" d="M205 0v1638l948 -1028v967h266v-1643l-948 1029v-963h-266zM344 1755q23 45 52.5 97.5t67.5 97.5t85 74.5t104 29.5q49 0 98.5 -20.5t91.5 -46t75.5 -46t54.5 -20.5q8 0 20.5 20.5t24.5 47t22.5 51t14.5 35.5l225 -93q-23 -49 -50.5 -102t-63.5 -97t-84 -74t-109 -30 q-51 0 -99.5 20.5t-90.5 46.5t-75.5 46t-54.5 20q-8 0 -20 -20t-24.5 -47t-23 -52.5t-14.5 -33.5z" />
<glyph unicode="&#xf2;" horiz-adv-x="1740" d="M61 788q0 168 63.5 315.5t173.5 257t257 173t315 63.5t315.5 -63.5t257 -173t173 -257t63.5 -315.5t-63.5 -315t-173 -257t-257 -173t-315.5 -63t-315 63t-257 173t-173.5 257.5t-63.5 314.5zM332 788q0 -111 42 -209t115.5 -171.5t172 -115.5t208.5 -42q111 0 209.5 42 t172 115.5t115.5 171.5t42 209t-42 209.5t-115.5 172t-172 115.5t-209.5 42t-209 -42t-171.5 -115.5t-115.5 -172t-42 -209.5zM498 1939l274 164l266 -403h-274z" />
<glyph unicode="&#xf3;" horiz-adv-x="1740" d="M61 788q0 168 63.5 315.5t173.5 257t257 173t315 63.5t315.5 -63.5t257 -173t173 -257t63.5 -315.5t-63.5 -315t-173 -257t-257 -173t-315.5 -63t-315 63t-257 173t-173.5 257.5t-63.5 314.5zM332 788q0 -111 42 -209t115.5 -171.5t172 -115.5t208.5 -42q111 0 209.5 42 t172 115.5t115.5 171.5t42 209t-42 209.5t-115.5 172t-172 115.5t-209.5 42t-209 -42t-171.5 -115.5t-115.5 -172t-42 -209.5zM684 1700l266 403l273 -164l-267 -239h-272z" />
<glyph unicode="&#xf4;" horiz-adv-x="1740" d="M61 788q0 168 63.5 315.5t173.5 257t257 173t315 63.5t315.5 -63.5t257 -173t173 -257t63.5 -315.5t-63.5 -315t-173 -257t-257 -173t-315.5 -63t-315 63t-257 173t-173.5 257.5t-63.5 314.5zM332 788q0 -111 42 -209t115.5 -171.5t172 -115.5t208.5 -42q111 0 209.5 42 t172 115.5t115.5 171.5t42 209t-42 209.5t-115.5 172t-172 115.5t-209.5 42t-209 -42t-171.5 -115.5t-115.5 -172t-42 -209.5zM518 1700l225 403h254l226 -403h-213l-140 168l-139 -168h-213z" />
<glyph unicode="&#xf5;" horiz-adv-x="1740" d="M61 788q0 168 63.5 315.5t173.5 257t257 173t315 63.5t315.5 -63.5t257 -173t173 -257t63.5 -315.5t-63.5 -315t-173 -257t-257 -173t-315.5 -63t-315 63t-257 173t-173.5 257.5t-63.5 314.5zM332 788q0 -111 42 -209t115.5 -171.5t172 -115.5t208.5 -42q111 0 209.5 42 t172 115.5t115.5 171.5t42 209t-42 209.5t-115.5 172t-172 115.5t-209.5 42t-209 -42t-171.5 -115.5t-115.5 -172t-42 -209.5zM401 1755q23 45 52.5 97.5t67.5 97.5t85 74.5t107 29.5q49 0 98 -20.5t91 -46t75 -46t53 -20.5q8 0 21.5 20.5t26 47t22.5 51t14 35.5l225 -93 q-23 -49 -50 -102t-64 -97t-85 -74t-110 -30q-49 0 -98 20.5t-91 46.5t-75 46t-53 20q-10 0 -22.5 -20t-25 -47t-22.5 -52.5t-14 -33.5z" />
<glyph unicode="&#xf6;" horiz-adv-x="1740" d="M61 788q0 168 63.5 315.5t173.5 257t257 173t315 63.5t315.5 -63.5t257 -173t173 -257t63.5 -315.5t-63.5 -315t-173 -257t-257 -173t-315.5 -63t-315 63t-257 173t-173.5 257.5t-63.5 314.5zM332 788q0 -111 42 -209t115.5 -171.5t172 -115.5t208.5 -42q111 0 209.5 42 t172 115.5t115.5 171.5t42 209t-42 209.5t-115.5 172t-172 115.5t-209.5 42t-209 -42t-171.5 -115.5t-115.5 -172t-42 -209.5zM408 1939q0 82 57 139.5t139 57.5t139.5 -57.5t57.5 -139.5q0 -86 -57.5 -142t-139.5 -56t-139 56t-57 142zM940 1939q0 82 57.5 139.5 t139.5 57.5t139 -57.5t57 -139.5q0 -86 -57 -142t-139 -56t-139.5 56t-57.5 142z" />
<glyph unicode="&#xf7;" />
<glyph unicode="&#xf8;" horiz-adv-x="1740" d="M61 788q0 168 63.5 315.5t173.5 257t257 173t315 63.5q141 0 265.5 -45t228.5 -122l127 126l188 -188l-133 -133q63 -98 98 -211t35 -236q0 -168 -63.5 -315t-173 -257t-257 -173t-315.5 -63q-123 0 -235.5 34.5t-210.5 98.5l-92 -93l-189 189l86 86q-78 104 -123 228 t-45 265zM332 788q0 -86 23.5 -160.5t66.5 -140.5l749 750q-66 43 -140.5 66.5t-160.5 23.5q-111 0 -209 -42t-171.5 -115.5t-115.5 -172t-42 -209.5zM621 309q115 -59 249 -59q111 0 209.5 42t172 115.5t115.5 171.5t42 209q0 135 -59 250z" />
<glyph unicode="&#xf9;" horiz-adv-x="1552" d="M154 602v975h266v-975q0 -74 27.5 -138.5t76.5 -113.5t113.5 -76.5t138.5 -27.5t138.5 27.5t113.5 76.5t77 113.5t28 138.5v975h266v-975q0 -129 -49 -242q-37 -86 -95.5 -156.5t-133 -120.5t-163 -76.5t-182.5 -26.5q-129 0 -242.5 49t-197.5 133t-133 197.5t-49 242.5z M403 1939l275 164l266 -403h-274z" />
<glyph unicode="&#xfa;" horiz-adv-x="1552" d="M154 602v975h266v-975q0 -74 27.5 -138.5t76.5 -113.5t113.5 -76.5t138.5 -27.5t138.5 27.5t113.5 76.5t77 113.5t28 138.5v975h266v-975q0 -129 -49 -242q-37 -86 -95.5 -156.5t-133 -120.5t-163 -76.5t-182.5 -26.5q-129 0 -242.5 49t-197.5 133t-133 197.5t-49 242.5z M608 1700l266 403l275 -164l-266 -239h-275z" />
<glyph unicode="&#xfb;" horiz-adv-x="1552" d="M154 602v975h266v-975q0 -74 27.5 -138.5t76.5 -113.5t113.5 -76.5t138.5 -27.5t138.5 27.5t113.5 76.5t77 113.5t28 138.5v975h266v-975q0 -129 -49 -242q-37 -86 -95.5 -156.5t-133 -120.5t-163 -76.5t-182.5 -26.5q-129 0 -242.5 49t-197.5 133t-133 197.5t-49 242.5z M424 1700l225 403h254l225 -403h-213l-139 168l-139 -168h-213z" />
<glyph unicode="&#xfc;" horiz-adv-x="1552" d="M154 602v975h266v-975q0 -74 27.5 -138.5t76.5 -113.5t113.5 -76.5t138.5 -27.5t138.5 27.5t113.5 76.5t77 113.5t28 138.5v975h266v-975q0 -129 -49 -242q-37 -86 -95.5 -156.5t-133 -120.5t-163 -76.5t-182.5 -26.5q-129 0 -242.5 49t-197.5 133t-133 197.5t-49 242.5z M311 1939q0 41 15.5 77t43 62.5t63.5 42t77 15.5q82 0 139.5 -57.5t57.5 -139.5q0 -86 -57.5 -142t-139.5 -56q-41 0 -77 15.5t-63.5 42t-43 63t-15.5 77.5zM844 1939q0 41 15 77t43 62.5t63.5 42t76.5 15.5q82 0 139.5 -57.5t57.5 -139.5q0 -86 -57.5 -142t-139.5 -56 q-41 0 -76.5 15.5t-63.5 42t-43 63t-15 77.5z" />
<glyph unicode="&#xfd;" horiz-adv-x="1236" d="M0 1577h309l309 -526l312 526h307l-485 -825v-752h-267v752zM473 1700l266 403l273 -164l-267 -239h-272z" />
<glyph unicode="&#xfe;" />
<glyph unicode="&#xff;" horiz-adv-x="1236" d="M0 1577h309l309 -526l312 526h307l-485 -825v-752h-267v752zM156 1939q0 82 57 139.5t139 57.5q41 0 77 -15.5t63.5 -42t43 -62.5t15.5 -77t-15.5 -77.5t-43 -63t-63.5 -42t-77 -15.5q-82 0 -139 56t-57 142zM688 1939q0 82 57.5 139.5t139.5 57.5q41 0 76.5 -15.5 t63.5 -42t43 -62.5t15 -77t-15 -77.5t-43 -63t-63.5 -42t-76.5 -15.5q-82 0 -139.5 56t-57.5 142z" />
<glyph unicode="&#x152;" horiz-adv-x="2562" d="M61 788q0 168 63.5 315.5t173.5 257t257 173t315 63.5q160 0 297.5 -56t247.5 -155v191h983v-266h-717v-389h635v-267h-635v-389h717v-266h-983v190q-111 -98 -248 -154t-297 -56q-168 0 -315 63t-257 173t-173.5 257.5t-63.5 314.5zM332 788q0 -111 42 -209 t115.5 -171.5t172 -115.5t208.5 -42q111 0 209.5 42t172 115.5t115.5 171.5t42 209t-42 209.5t-115.5 172t-172 115.5t-209.5 42t-209 -42t-171.5 -115.5t-115.5 -172t-42 -209.5z" />
<glyph unicode="&#x153;" horiz-adv-x="2562" d="M61 788q0 168 63.5 315.5t173.5 257t257 173t315 63.5q160 0 297.5 -56t247.5 -155v191h983v-266h-717v-389h635v-267h-635v-389h717v-266h-983v190q-111 -98 -248 -154t-297 -56q-168 0 -315 63t-257 173t-173.5 257.5t-63.5 314.5zM332 788q0 -111 42 -209 t115.5 -171.5t172 -115.5t208.5 -42q111 0 209.5 42t172 115.5t115.5 171.5t42 209t-42 209.5t-115.5 172t-172 115.5t-209.5 42t-209 -42t-171.5 -115.5t-115.5 -172t-42 -209.5z" />
<glyph unicode="&#x178;" horiz-adv-x="1236" d="M0 1577h309l309 -526l312 526h307l-485 -825v-752h-267v752zM156 1939q0 82 57 139.5t139 57.5q41 0 77 -15.5t63.5 -42t43 -62.5t15.5 -77t-15.5 -77.5t-43 -63t-63.5 -42t-77 -15.5q-82 0 -139 56t-57 142zM688 1939q0 82 57.5 139.5t139.5 57.5q41 0 76.5 -15.5 t63.5 -42t43 -62.5t15 -77t-15 -77.5t-43 -63t-63.5 -42t-76.5 -15.5q-82 0 -139.5 56t-57.5 142z" />
<glyph unicode="&#x2c6;" horiz-adv-x="0" d="M-393 1700l225 403h254l225 -403h-213l-139 168l-139 -168h-213z" />
<glyph unicode="&#x2dc;" horiz-adv-x="1556" d="M264 1755q23 45 52.5 97.5t67.5 97.5t85 74.5t106 29.5q49 0 98.5 -20.5t91.5 -46t74.5 -46t53.5 -20.5q8 0 21.5 20.5t25.5 47t22.5 51t14.5 35.5l225 -93q-23 -49 -50.5 -102t-64 -97t-85 -74t-109.5 -30q-49 0 -98.5 20.5t-91 46.5t-74.5 46t-54 20q-10 0 -22 -20 t-24.5 -47t-22.5 -52.5t-14 -33.5z" />
<glyph unicode="&#x2000;" horiz-adv-x="1068" />
<glyph unicode="&#x2001;" horiz-adv-x="2136" />
<glyph unicode="&#x2002;" horiz-adv-x="1068" />
<glyph unicode="&#x2003;" horiz-adv-x="2136" />
<glyph unicode="&#x2004;" horiz-adv-x="712" />
<glyph unicode="&#x2005;" horiz-adv-x="534" />
<glyph unicode="&#x2006;" horiz-adv-x="356" />
<glyph unicode="&#x2007;" horiz-adv-x="356" />
<glyph unicode="&#x2008;" horiz-adv-x="267" />
<glyph unicode="&#x2009;" horiz-adv-x="427" />
<glyph unicode="&#x200a;" horiz-adv-x="118" />
<glyph unicode="&#x2010;" horiz-adv-x="1122" d="M143 672v233h836v-233h-836z" />
<glyph unicode="&#x2011;" horiz-adv-x="1122" d="M143 672v233h836v-233h-836z" />
<glyph unicode="&#x2012;" horiz-adv-x="1122" d="M143 672v233h836v-233h-836z" />
<glyph unicode="&#x2013;" horiz-adv-x="1409" d="M143 655v267h1102v-267h-1102z" />
<glyph unicode="&#x2014;" horiz-adv-x="1816" d="M143 655v267h1530v-267h-1530z" />
<glyph unicode="&#x2018;" horiz-adv-x="518" d="M102 1577h314v-608h-232z" />
<glyph unicode="&#x2019;" horiz-adv-x="518" d="M102 969v608h314l-82 -608h-232z" />
<glyph unicode="&#x201a;" horiz-adv-x="722" d="M205 207h313l-102 -608h-211v608z" />
<glyph unicode="&#x201c;" horiz-adv-x="968" d="M102 1577h314v-608h-232zM553 1577h313v-608h-231z" />
<glyph unicode="&#x201d;" horiz-adv-x="968" d="M102 969v608h314l-82 -608h-232zM553 969v608h313l-82 -608h-231z" />
<glyph unicode="&#x201e;" horiz-adv-x="1122" d="M205 207h313l-102 -608h-211v608zM655 207h314l-103 -608h-211v608z" />
<glyph unicode="&#x2022;" horiz-adv-x="684" d="M143 786q0 39 15.5 76t42 63.5t62.5 43t79 16.5q41 0 77 -15.5t63.5 -43t43 -63.5t15.5 -77q0 -43 -15.5 -78.5t-43 -62.5t-63.5 -42t-77 -15q-86 0 -142.5 56t-56.5 142z" />
<glyph unicode="&#x2026;" horiz-adv-x="1830" d="M143 176q0 41 15.5 77t42 63.5t62.5 43t77 15.5t78 -15.5t63.5 -43t42 -63.5t15.5 -77q0 -82 -56.5 -139t-142.5 -57q-82 0 -139.5 57t-57.5 139zM717 176q0 41 15.5 77t42 63.5t62 43t76.5 15.5t78 -15.5t63.5 -43t42 -63.5t15.5 -77q0 -82 -56.5 -139t-142.5 -57 q-82 0 -139 57t-57 139zM1290 176q0 41 15.5 77t42 63.5t62.5 43t77 15.5t78 -15.5t63.5 -43t42 -63.5t15.5 -77q0 -82 -56.5 -139t-142.5 -57q-82 0 -139.5 57t-57.5 139z" />
<glyph unicode="&#x202f;" horiz-adv-x="427" />
<glyph unicode="&#x205f;" horiz-adv-x="534" />
<glyph unicode="&#x2122;" />
<glyph unicode="&#x25fc;" horiz-adv-x="1576" d="M0 0v1577h1577v-1577h-1577z" />
</font>
</defs>
</svg>
