<?xml version="1.0" ?><svg height="100px" version="1.1" viewBox="0 0 160 100" width="160px" xmlns="http://www.w3.org/2000/svg" xmlns:sketch="http://www.bohemiancoding.com/sketch/ns" xmlns:xlink="http://www.w3.org/1999/xlink"><title/><defs/><g fill="none" fill-rule="evenodd" id="Page-1" stroke="none" stroke-width="1"><g id="2co" transform="translate(-1.000000, 0.000000)"><path d="M149,1.01146687e-06 C141,1.76644588e-06 56.3007812,-1.60318373e-06 9,1.01146687e-06 C5,1.23257532e-06 1,4.00000101 1,8.00000101 L1,88.000001 C0.999999537,96.000001 5,100.000001 13,100.000001 C57.6232096,100.000001 141,100.000002 149,100.000001 C157,100.000001 161,96.000001 161,88.000001 L161,12.000001 C161,4.00000101 157,1.01146687e-06 149,1.01146687e-06 Z M149,1.01146687e-06" fill="#F4F4F4" id="Rectangle-1"/><circle cx="81" cy="50" d="M81,94 C105.30053,94 125,74.3005302 125,50 C125,25.6994698 105.30053,6 81,6 C56.6994698,6 37,25.6994698 37,50 C37,74.3005302 56.6994698,94 81,94 Z M81,94" fill="#306FC5" id="Oval-2" r="44"/><path d="M92,58.5777473 L92,63.8928577 C91.2996782,64.3314701 90.5516794,64.7175167 89.756,65.051 C87.8519905,65.849004 85.7660113,66.248 83.498,66.248 C81.2299887,66.248 79.1440095,65.849004 77.24,65.051 C75.3359905,64.252996 73.7050068,63.154007 72.347,61.754 C70.9889932,60.353993 69.9250038,58.7020095 69.155,56.798 C68.3849962,54.8939905 68,52.8360111 68,50.624 C68,48.4119889 68.3849962,46.3540095 69.155,44.45 C69.9250038,42.5459905 70.9889932,40.894007 72.347,39.494 C73.7050068,38.093993 75.3359905,36.995004 77.24,36.197 C79.1440095,35.398996 81.2299887,35 83.498,35 C85.7660113,35 87.8519905,35.398996 89.756,36.197 C90.5516794,36.5304833 91.2996782,36.9165299 92,37.3551423 L92,37.3551423 L92,42.6702527 C91.8854398,42.5325998 91.7674398,42.397849 91.646,42.266 C90.6659951,41.2019947 89.4900069,40.3550032 88.118,39.725 C86.7459931,39.0949969 85.2060085,38.78 83.498,38.78 C81.7899915,38.78 80.2500069,39.0949969 78.878,39.725 C77.5059931,40.3550032 76.3300049,41.2019947 75.35,42.266 C74.3699951,43.3300053 73.6140027,44.5829928 73.082,46.025 C72.5499973,47.4670072 72.284,48.9999919 72.284,50.624 C72.284,52.2480081 72.5499973,53.7809928 73.082,55.223 C73.6140027,56.6650072 74.3699951,57.9179947 75.35,58.982 C76.3300049,60.0460053 77.5059931,60.8929969 78.878,61.523 C80.2500069,62.1530032 81.7899915,62.468 83.498,62.468 C83.498,62.468 81.7899915,62.468 83.498,62.468 C85.2060085,62.468 86.7459931,62.1530032 88.118,61.523 C89.4900069,60.8929969 90.6659951,60.0460053 91.646,58.982 C91.7674398,58.850151 91.8854398,58.7154002 92,58.5777473 L92,58.5777473 Z M46,61.208 L57.928,49.364 C58.3480021,48.971998 58.753998,48.5450023 59.146,48.083 C59.538002,47.6209977 59.8879985,47.1380025 60.196,46.634 C60.5040015,46.1299975 60.7489991,45.5980028 60.931,45.038 C61.1130009,44.4779972 61.204,43.8900031 61.204,43.274 C61.204,42.5459964 61.0710013,41.8880029 60.805,41.3 C60.5389987,40.7119971 60.1750023,40.215002 59.713,39.809 C59.2509977,39.402998 58.7050032,39.0880011 58.075,38.864 C57.4449969,38.6399989 56.7800035,38.528 56.08,38.528 C54.6239927,38.528 53.4200048,38.9339959 52.468,39.746 C51.5159952,40.5580041 50.9140013,41.6779929 50.662,43.106 L46.294,42.728 C46.490001,41.4119934 46.8749971,40.2710048 47.449,39.305 C48.0230029,38.3389952 48.7369957,37.5340032 49.591,36.89 C50.4450043,36.2459968 51.4249945,35.7700015 52.531,35.462 C53.6370055,35.1539985 54.8339936,35 56.122,35 C57.4100064,35 58.6209943,35.1749982 59.755,35.525 C60.8890057,35.8750018 61.8829957,36.3929966 62.737,37.079 C63.5910043,37.7650034 64.2629976,38.6189949 64.753,39.641 C65.2430025,40.6630051 65.488,41.8599931 65.488,43.232 C65.488,44.2120049 65.3410015,45.1289957 65.047,45.983 C64.7529985,46.8370043 64.3680024,47.6419962 63.892,48.398 C63.4159976,49.1540038 62.8700031,49.8679966 62.254,50.54 C61.6379969,51.2120034 60.9940034,51.8699968 60.322,52.514 L50.536,61.964 L65.488,61.964 L65.488,65.492 L46,65.492 L46,61.208 Z M109.46,66.248 C107.191989,66.248 105.10601,65.849004 103.202,65.051 C101.29799,64.252996 99.6670068,63.154007 98.309,61.754 C96.9509932,60.353993 95.8870039,58.7020095 95.117,56.798 C94.3469962,54.8939905 93.962,52.8360111 93.962,50.624 C93.962,48.4119889 94.3469962,46.3540095 95.117,44.45 C95.8870039,42.5459905 96.9509932,40.894007 98.309,39.494 C99.6670068,38.093993 101.29799,36.995004 103.202,36.197 C105.10601,35.398996 107.191989,35 109.46,35 C111.728011,35 113.81399,35.398996 115.718,36.197 C117.62201,36.995004 119.252993,38.093993 120.611,39.494 C121.969007,40.894007 123.032996,42.5459905 123.803,44.45 C124.573004,46.3540095 124.958,48.4119889 124.958,50.624 C124.958,52.8360111 124.573004,54.8939905 123.803,56.798 C123.032996,58.7020095 121.969007,60.353993 120.611,61.754 C119.252993,63.154007 117.62201,64.252996 115.718,65.051 C113.81399,65.849004 111.728011,66.248 109.46,66.248 Z M109.46,62.468 C111.168009,62.468 112.707993,62.1530032 114.08,61.523 C115.452007,60.8929969 116.627995,60.0460053 117.608,58.982 C118.588005,57.9179947 119.343997,56.6650072 119.876,55.223 C120.408003,53.7809928 120.674,52.2480081 120.674,50.624 C120.674,48.9999919 120.408003,47.4670072 119.876,46.025 C119.343997,44.5829928 118.588005,43.3300053 117.608,42.266 C116.627995,41.2019947 115.452007,40.3550032 114.08,39.725 C112.707993,39.0949969 111.168009,38.78 109.46,38.78 C107.751991,38.78 106.212007,39.0949969 104.84,39.725 C103.467993,40.3550032 102.292005,41.2019947 101.312,42.266 C100.331995,43.3300053 99.5760027,44.5829928 99.044,46.025 C98.5119973,47.4670072 98.246,48.9999919 98.246,50.624 C98.246,52.2480081 98.5119973,53.7809928 99.044,55.223 C99.5760027,56.6650072 100.331995,57.9179947 101.312,58.982 C102.292005,60.0460053 103.467993,60.8929969 104.84,61.523 C106.212007,62.1530032 107.751991,62.468 109.46,62.468 C109.46,62.468 107.751991,62.468 109.46,62.468 Z M109.46,62.468" fill="#FFFFFF" id="2CO"/></g></g></svg>