<?xml version="1.0" ?><svg height="100px" version="1.1" viewBox="0 0 160 100" width="160px" xmlns="http://www.w3.org/2000/svg" xmlns:sketch="http://www.bohemiancoding.com/sketch/ns" xmlns:xlink="http://www.w3.org/1999/xlink"><title/><defs/><g fill="none" fill-rule="evenodd" id="Page-1" stroke="none" stroke-width="1"><g id="skrill" transform="translate(-1.000000, 0.000000)"><path d="M149,1.01146687e-06 C141,1.76644588e-06 56.3007812,-1.60318373e-06 9,1.01146687e-06 C5,1.23257532e-06 1,4.00000101 1,8.00000101 L1,88.000001 C0.999999537,96.000001 5,100.000001 13,100.000001 C57.6232096,100.000001 141,100.000002 149,100.000001 C157,100.000001 161,96.000001 161,88.000001 L161,12.000001 C161,4.00000101 157,1.01146687e-06 149,1.01146687e-06 Z M149,1.01146687e-06" fill="#6A3494" id="Rectangle-1"/><path d="M110.663041,61.4288887 C113.640259,61.4288887 116.053421,63.7948771 116.053421,66.7130242 C116.053421,69.6317393 113.640259,72 110.663041,72 C107.689298,72 105.277294,69.6317393 105.277294,66.7130242 C105.277294,63.7948771 107.689298,61.4288887 110.663041,61.4288887 C110.663041,61.4288887 107.689298,61.4288887 110.663041,61.4288887 L110.663041,61.4288887 L110.663041,61.4288887 Z M69.3792626,58.576069 C69.1366144,57.9761929 67.385957,53.1254906 63.1520648,48.0981202 L63.1520648,69.5948151 L51.8709515,67.4071989 L51.8709515,28.4436583 L63.1520648,28.4436583 L63.1520648,40.4877608 C66.4194181,35.6807994 68.0328258,28.4436583 68.0328258,28.4436583 L81.54526,28.4436583 C80.2086681,33.8936687 74.3619473,43.944433 74.3619473,43.944433 C79.6092865,50.4703574 81.9141547,57.4234662 82.280733,58.576069 L69.3792626,58.576069 L69.3792626,58.576069 L69.3792626,58.576069 L69.3792626,58.576069 Z M99.0373559,58.9822351 C88.9329993,58.664119 83.8037991,54.2173105 83.8037991,45.3776596 L83.8037991,28.4436583 L94.8272073,28.4436583 L94.8272073,42.252737 C94.8272073,47.5465296 95.5337247,49.8153791 101.936973,50.0312435 L101.936973,58.8271535 C100.859244,59.0515389 99.0373559,58.9822351 99.0373559,58.9822351 L99.0373559,58.9822351 L99.0373559,58.9822351 L99.0373559,58.9822351 Z M32.951343,54.2854782 C31.5695803,54.3746643 28.3705623,54.5768953 28.3705623,57.4018798 C28.3705623,60.8108345 32.9762448,60.8108345 34.7037377,60.8108345 C37.7411832,60.8108345 41.6750951,59.9309027 44.4843703,59.1066412 C44.4843703,59.1066412 46.051449,58.5647077 47.3845662,58.0091407 L47.5090754,57.9761929 L47.5090754,67.3123322 L47.3388163,67.3617538 C44.0233967,68.4995869 40.1682441,69.5948151 33.0208365,69.5948151 C20.6973204,69.5948151 16.3308115,62.5525201 16.3308115,56.5191076 C16.3308115,53.0414171 17.8498238,44.8567445 31.963956,43.9126214 C33.1604026,43.8404772 36.3350979,43.6615369 36.3350979,40.7416856 C36.3350979,38.3313881 33.7360405,36.9100909 29.3637404,36.9100909 C24.5721628,36.9100909 19.9242051,38.1087069 17.1010312,39.2454038 L17.1010312,29.6297769 C21.3273949,28.5430696 26.0917543,28 31.6755579,28 C43.7251537,28 49.121904,34.663396 49.121904,41.2671452 C49.121904,48.7548027 43.0829178,53.6191386 32.951343,54.2854782 C32.951343,54.2854782 43.0829178,53.6191386 32.951343,54.2854782 L32.951343,54.2854782 L32.951343,54.2854782 Z M105.198535,28.4436583 L116.13276,28.4436583 L116.13276,58.5419851 L105.198535,58.5419851 L105.198535,28.4436583 L105.198535,28.4436583 L105.198535,28.4436583 L105.198535,28.4436583 Z M136.721371,67.6758934 L136.721371,28.4436583 L147.657333,28.4436583 L147.657333,69.5948151 L136.721371,67.6758934 L136.721371,67.6758934 L136.721371,67.6758934 L136.721371,67.6758934 Z M120.764502,67.6758934 L131.69004,69.5948151 L131.69004,28.4436583 L120.764502,28.4436583 L120.764502,67.6758934 L120.764502,67.6758934 Z M120.764502,67.6758934" fill="#FFFFFF" transform="translate(81.994072, 50.000000) scale(1, -1) translate(-81.994072, -50.000000) "/></g></g></svg>