<?xml version="1.0" ?><svg height="100px" version="1.1" viewBox="0 0 160 100" width="160px" xmlns="http://www.w3.org/2000/svg" xmlns:sketch="http://www.bohemiancoding.com/sketch/ns" xmlns:xlink="http://www.w3.org/1999/xlink"><title/><defs/><g fill="none" fill-rule="evenodd" id="Page-1" stroke="none" stroke-width="1"><g id="western-uinion"><path d="M148,1.01146687e-06 C140,1.76644588e-06 55.3007812,-1.60318373e-06 8,1.01146687e-06 C4,1.23257532e-06 -1.98951966e-13,4.00000101 0,8.00000101 L0,88.000001 C-4.6283987e-07,96.000001 4,100.000001 12,100.000001 C56.6232096,100.000001 140,100.000002 148,100.000001 C156,100.000001 160,96.000001 160,88.000001 L160,12.000001 C160,4.00000101 156,1.01146687e-06 148,1.01146687e-06 Z M148,1.01146687e-06" fill="#1C1C1C" id="Rectangle-1"/><path d="M54.4123453,65.8226235 C53.411057,65.6053605 52.278416,65.0657598 51.6701217,64.5162024 C51.3988289,64.2711064 51.0052218,63.7194573 50.790419,63.2832819 L50.4016846,62.4939211 L50.3672759,57.0948369 L50.3328671,51.6957515 L53.199591,51.6957515 L56.0663148,51.6957515 L56.0665533,56.3168971 C56.0666725,60.4809489 56.0873634,60.9784453 56.2752502,61.3465055 C56.5367343,61.8587384 56.777784,62.0085339 57.1786669,61.9079193 C57.8331666,61.7436367 57.8551453,61.5650935 57.8551453,56.4122609 L57.8551453,51.6957515 L60.7769019,51.6957515 L63.6986585,51.6957515 L63.6986585,56.5689446 C63.6986585,59.3436855 63.6469124,61.7149915 63.5784909,62.0757808 C63.1979315,64.0824611 61.8267284,65.3405325 59.4999345,65.8178366 C58.3504379,66.0536367 55.489411,66.0563295 54.4123453,65.8226188 L54.4123453,65.8226235 L54.4123453,65.8226235 L54.4123453,65.8226235 L54.4123453,65.8226235 Z M100.452043,65.7649063 C99.2477211,65.4494079 98.4685685,65.0043528 97.6079228,64.1403333 C96.2778796,62.8050751 95.7405292,61.2315946 95.7405292,58.6721907 C95.7405292,56.1117672 96.2878147,54.5270863 97.6406632,53.1703001 C98.9322298,51.8749721 100.47495,51.3421271 102.933676,51.3421271 C105.404413,51.3421271 106.9466,51.8745869 108.249498,53.1774852 C109.608618,54.5366053 110.14152,56.0842311 110.14152,58.6721907 C110.14152,61.2697266 109.617546,62.8030155 108.269063,64.1514992 C106.911399,65.509162 105.450621,66.0106225 102.884786,65.9998299 C101.747293,65.9950477 101.087213,65.9313033 100.452043,65.7649063 C100.452043,65.7649063 101.087213,65.9313033 100.452043,65.7649063 L100.452043,65.7649063 L100.452043,65.7649063 Z M103.50012,61.8876339 C104.286236,61.3370164 104.48571,57.2823588 103.795936,55.8746636 C103.405037,55.0769132 102.506164,55.071363 102.101687,55.8642049 C101.37138,57.2957238 101.642767,61.6530085 102.483279,61.9909282 C102.787541,62.1132532 103.244241,62.0668605 103.50012,61.8876363 L103.50012,61.8876339 L103.50012,61.8876339 L103.50012,61.8876339 L103.50012,61.8876339 Z M132.67422,50.3839424 L132.67422,35 L133.747523,35 L134.820822,35 L134.820822,50.3839424 L134.820822,65.7678853 L133.747523,65.7678853 L132.67422,65.7678853 L132.67422,50.3839424 L132.67422,50.3839424 L132.67422,50.3839424 L132.67422,50.3839424 Z M143.957528,50.5628255 L143.957528,35.3577661 L144.971199,35.3577661 L145.984869,35.3577661 L145.984869,50.5628255 L145.984869,65.7678853 L144.971199,65.7678853 L143.957528,65.7678853 L143.957528,50.5628255 L143.957528,50.5628255 L143.957528,50.5628255 L143.957528,50.5628255 Z M67.7533412,58.6721907 L67.7533412,51.6957515 L71.2004689,51.6957515 L74.6475955,51.6957515 L74.9999153,52.6796083 C75.1936909,53.2207296 75.7488318,54.8005114 76.2335608,56.1902348 L77.1148878,58.7170045 L77.1464762,55.206378 L77.1780645,51.6957515 L79.5613974,51.6957515 L81.9447303,51.6957515 L81.9447303,58.6721907 L81.9447303,65.6486299 L78.5161384,65.647175 L75.0875465,65.6457201 L73.8353651,62.0132659 L72.5831837,58.3808081 L72.5516466,62.0147196 L72.5201095,65.6486299 L70.1367253,65.6486299 L67.7533412,65.6486299 L67.7533412,58.6721907 L67.7533412,58.6721907 L67.7533412,58.6721907 L67.7533412,58.6721907 Z M86.2379237,58.6721907 L86.2379237,51.6957515 L89.1000526,51.6957515 L91.9621815,51.6957515 L91.9621815,58.6721907 L91.9621815,65.6486299 L89.1000526,65.6486299 L86.2379237,65.6486299 L86.2379237,58.6721907 L86.2379237,58.6721907 L86.2379237,58.6721907 L86.2379237,58.6721907 Z M113.90517,58.6721907 L113.90517,51.6957515 L117.348322,51.6957515 L120.791473,51.6957515 L122.029095,55.2435988 L123.266716,58.7914461 L123.298305,55.2435988 L123.329893,51.6957515 L125.713226,51.6957515 L128.096559,51.6957515 L128.096559,58.6721907 L128.096559,65.6486299 L124.661743,65.6486299 L121.226927,65.6486299 L119.98097,62.0468864 L118.735012,58.4451428 L118.70345,62.0468864 L118.671887,65.6486299 L116.288529,65.6486299 L113.90517,65.6486299 L113.90517,58.6721907 L113.90517,58.6721907 L113.90517,58.6721907 L113.90517,58.6721907 Z M54.676595,49.5449654 C53.3165495,49.3020064 51.9362926,48.5917119 51.3625836,47.8395396 C50.9302912,47.2727761 50.6149371,46.4091037 50.5137632,45.5148439 L50.4305051,44.7789405 L53.2484093,44.7789405 C56.0095695,44.7789405 56.0663148,44.7838657 56.0663148,45.0233734 C56.0663148,45.3681634 56.3842711,45.9417972 56.6559861,46.0872148 C57.0903976,46.3197039 57.6144081,46.2305784 57.9835738,45.8614119 C58.7422515,45.1027343 58.3809602,44.8393898 55.3440876,43.937496 C52.2064942,43.0056906 51.602591,42.6523083 51.0756838,41.4397901 C50.5957525,40.3353732 50.6480841,38.5408196 51.1912709,37.4760862 C51.7479395,36.3849246 53.059609,35.5274212 54.70532,35.1787781 C55.8312565,34.9402495 58.5552471,34.9454705 59.7313973,35.1884139 C61.9658386,35.6499501 63.1580739,36.847373 63.3137141,38.7863187 L63.3735469,39.5317065 L60.7336015,39.5317065 L58.0936561,39.5317065 L58.0936561,39.2543567 C58.0936561,38.8443603 57.6206595,38.4584082 57.118196,38.4584082 C56.7117201,38.4584082 56.0663148,38.8267284 56.0663148,39.0586956 C56.0663148,39.3566659 56.68751,39.6579252 58.0126733,40.002615 C60.9619863,40.7697669 61.9035134,41.1588125 62.7078718,41.9427067 C63.479528,42.6947298 63.7441246,43.417935 63.7455581,44.7789428 C63.7462736,45.4020522 63.6761288,46.1265285 63.5898118,46.3888899 C63.1409369,47.7532548 62.0591154,48.7384604 60.427176,49.2690764 C59.5651457,49.5493599 59.2480564,49.5856804 57.3781239,49.6183217 C56.2302909,49.638359 55.0146029,49.6053492 54.676595,49.5449678 C54.676595,49.5449678 55.0146029,49.6053492 54.676595,49.5449678 L54.676595,49.5449654 L54.676595,49.5449654 Z M15.8772549,49.2080499 C15.8772549,49.151623 15.2333584,46.1329719 14.4463739,42.4999357 C13.6593892,38.8668995 13.0154102,35.7726234 13.0153094,35.6237652 L13.0151305,35.3531152 L15.6047685,35.3852545 L18.1944064,35.4173938 L18.6721575,39.0183682 C18.9349206,40.9989041 19.1635854,42.6056652 19.1803017,42.5889491 C19.197018,42.5722319 19.4268798,41.085957 19.6911058,39.2861132 C19.9553319,37.4862706 20.2023739,35.8660921 20.240088,35.6857184 L20.3086592,35.3577661 L23.2683257,35.3577661 L26.2279924,35.3577661 L26.352761,36.1031122 C26.4213841,36.5130525 26.6453767,38.0290864 26.8505222,39.4720764 C27.0556676,40.9150664 27.2603182,42.1917083 27.3053013,42.3090568 C27.3502844,42.4264064 27.5998192,40.9103725 27.8598233,38.9400925 L28.3325587,35.3577661 L30.929806,35.3577661 C33.3236357,35.3577661 33.5271033,35.3741124 33.5276769,35.566463 C33.5280347,35.6812463 32.871182,38.820644 32.06804,42.5429022 L30.6077819,49.3106441 L27.4905836,49.3106441 L24.3733842,49.3106441 L24.2465692,48.4460426 C24.1768203,47.9705119 23.9474505,46.3471481 23.7368574,44.8385681 C23.5262644,43.3299877 23.3202221,42.0564512 23.2789836,42.0084867 C23.2377463,41.9605234 22.9691796,43.5838871 22.6821677,45.6159617 L22.1603281,49.3106441 L19.0187938,49.3106441 C17.2909454,49.3106441 15.8772549,49.2644768 15.8772549,49.2080499 C15.8772549,49.2080499 15.8772549,49.2644768 15.8772549,49.2080499 L15.8772549,49.2080499 L15.8772549,49.2080499 Z M19.1691997,43.1416644 C19.1295721,43.1020358 19.1013866,43.1724716 19.1065648,43.2981871 C19.1122867,43.4371124 19.1405455,43.4653712 19.1786149,43.3702364 C19.2130644,43.2841495 19.2088276,43.1812917 19.1691997,43.1416644 C19.1691997,43.1416644 19.2088276,43.1812917 19.1691997,43.1416644 L19.1691997,43.1416644 L19.1691997,43.1416644 Z M36.5084339,42.3342053 L36.5084339,35.3577661 L41.8749256,35.3577661 L47.2414173,35.3577661 L47.2414173,37.3254798 L47.2414173,39.2931934 L44.6774268,39.2931934 L42.1134363,39.2931934 L42.1134363,39.8298425 L42.1134363,40.3664917 L44.4985438,40.3664917 L46.8836512,40.3664917 L46.8836512,42.3342053 L46.8836512,44.301919 L44.4985438,44.301919 L42.1134363,44.301919 L42.1134363,44.8385681 L42.1134363,45.3752173 L44.7966822,45.3752173 L47.479928,45.3752173 L47.479928,47.3429305 L47.479928,49.3106441 L41.994181,49.3106441 L36.5084339,49.3106441 L36.5084339,42.3342053 L36.5084339,42.3342053 L36.5084339,42.3342053 L36.5084339,42.3342053 Z M69.8999378,44.301919 L69.8999378,39.2931934 L68.2303626,39.2931934 L66.5607874,39.2931934 L66.5607874,37.3254798 L66.5607874,35.3577661 L72.7620668,35.3577661 L78.9633461,35.3577661 L78.9633461,37.3254798 L78.9633461,39.2931934 L77.2937709,39.2931934 L75.6241957,39.2931934 L75.6241957,44.301919 L75.6241957,49.3106441 L72.7620668,49.3106441 L69.8999378,49.3106441 L69.8999378,44.301919 L69.8999378,44.301919 L69.8999378,44.301919 L69.8999378,44.301919 Z M82.3024965,42.3342053 L82.3024965,35.3577661 L87.6689882,35.3577661 L93.0354799,35.3577661 L93.0354799,37.3254798 L93.0354799,39.2931934 L90.4714894,39.2931934 L87.9074989,39.2931934 L87.9074989,39.8298425 L87.9074989,40.3664917 L90.2926063,40.3664917 L92.6777138,40.3664917 L92.6777138,42.3342053 L92.6777138,44.301919 L90.2926063,44.301919 L87.9074989,44.301919 L87.9074989,44.8385681 L87.9074989,45.3752173 L90.5907448,45.3752173 L93.2739906,45.3752173 L93.2739906,47.3429305 L93.2739906,49.3106441 L87.7882435,49.3106441 L82.3024965,49.3106441 L82.3024965,42.3342053 L82.3024965,42.3342053 L82.3024965,42.3342053 L82.3024965,42.3342053 Z M96.9709071,42.3342053 L96.9709071,35.3577661 L101.79488,35.3577661 C106.861666,35.3577661 107.446941,35.4054468 108.419423,35.8974444 C109.533946,36.4613029 109.963222,37.2835508 109.967124,38.8619636 C109.968567,39.444668 109.908488,40.1258761 109.833621,40.3757602 C109.652263,40.981079 109.101528,41.6296673 108.514666,41.9290615 L108.036704,42.1729005 L108.53955,42.4216887 C109.401999,42.8483952 109.610541,43.3598027 109.91414,45.7926111 C110.020549,46.6452865 110.210753,47.7662059 110.336815,48.2835429 C110.462878,48.8008798 110.566019,49.2436154 110.566019,49.2673997 C110.566019,49.291184 109.280129,49.3106441 107.708487,49.3106441 L104.850955,49.3106441 L104.730509,48.8633434 C104.664264,48.6173279 104.499769,47.6647757 104.364967,46.7465606 C104.086796,44.8518043 103.956486,44.621608 103.082745,44.4814889 L102.57591,44.4002104 L102.57591,46.8554264 L102.57591,49.3106441 L99.7734083,49.3106441 L96.9709071,49.3106441 L96.9709071,42.3342053 L96.9709071,42.3342053 L96.9709071,42.3342053 L96.9709071,42.3342053 Z M104.074331,40.5916745 C104.51231,40.1534217 104.566253,39.6406344 104.217079,39.2346962 C103.979619,38.958632 103.807655,38.8887829 103.252021,38.8427062 L102.57591,38.7866371 L102.57591,39.8898757 L102.57591,40.9931143 L103.182805,40.9347996 C103.610739,40.8936804 103.873631,40.7924993 104.074331,40.5916745 C104.074331,40.5916745 103.873631,40.7924993 104.074331,40.5916745 L104.074331,40.5916745 L104.074331,40.5916745 Z M113.90517,42.3342053 L113.90517,35.3577661 L117.348322,35.3577661 L120.791473,35.3577661 L122.029095,38.9056134 L123.266716,42.4534607 L123.298305,38.9056134 L123.329893,35.3577661 L125.713226,35.3577661 L128.096559,35.3577661 L128.096559,42.3342053 L128.096559,49.3106441 L124.665706,49.3106441 L121.234853,49.3106441 L119.984933,45.7089618 L118.735012,42.1072803 L118.70345,45.7089618 L118.671887,49.3106441 L116.288529,49.3106441 L113.90517,49.3106441 L113.90517,42.3342053 L113.90517,42.3342053 L113.90517,42.3342053 L113.90517,42.3342053 Z M113.90517,42.3342053" fill="#DFAC16" id="western-union"/></g></g></svg>